<svg width="20" height="20" viewBox="0 0 20 20" fill="none" xmlns="http://www.w3.org/2000/svg">
<path d="M9.99995 12.6499L16.43 6.22078C16.5522 6.09856 16.6988 6.038 16.87 6.03912C17.0411 6.04023 17.188 6.10245 17.3108 6.22578C17.4336 6.34856 17.495 6.4955 17.495 6.66662C17.495 6.83773 17.4336 6.98467 17.3108 7.10745L10.9466 13.4749C10.8122 13.6099 10.6622 13.7083 10.4966 13.7699C10.3311 13.8322 10.1655 13.8633 9.99995 13.8633C9.8344 13.8633 9.66884 13.8322 9.50329 13.7699C9.33773 13.7077 9.18773 13.6094 9.05329 13.4749L2.68329 7.10828C2.56051 6.9855 2.49995 6.83773 2.50162 6.66495C2.50329 6.49273 2.56551 6.34523 2.68829 6.22245C2.81106 6.09967 2.95801 6.03801 3.12912 6.03745C3.30023 6.03689 3.4469 6.09856 3.56912 6.22245L9.99995 12.6499Z" fill="#222222"/>
</svg>
