<svg width="45" height="54" viewBox="0 0 45 54" fill="none" xmlns="http://www.w3.org/2000/svg">
<circle cx="22.5" cy="22.5" r="22.5" fill="#F6D776"/>
<path d="M29.2882 22.4132C29.2011 22.5006 29.0977 22.5699 28.9837 22.6173C28.8697 22.6646 28.7476 22.6889 28.6242 22.6889C28.5008 22.6889 28.3786 22.6646 28.2647 22.6173C28.1507 22.5699 28.0472 22.5006 27.9601 22.4132L23.9375 18.3905V29.8749C23.9375 30.1235 23.8387 30.362 23.6629 30.5378C23.4871 30.7136 23.2486 30.8124 23 30.8124C22.7513 30.8124 22.5129 30.7136 22.3371 30.5378C22.1612 30.362 22.0625 30.1235 22.0625 29.8749V18.3905L18.0382 22.4132C17.8621 22.5893 17.6233 22.6883 17.3742 22.6883C17.1251 22.6883 16.8862 22.5893 16.7101 22.4132C16.534 22.2371 16.4351 21.9982 16.4351 21.7491C16.4351 21.5001 16.534 21.2612 16.7101 21.0851L22.3351 15.4601C22.4222 15.3727 22.5257 15.3033 22.6397 15.256C22.7536 15.2087 22.8758 15.1843 22.9992 15.1843C23.1226 15.1843 23.2447 15.2087 23.3587 15.256C23.4727 15.3033 23.5762 15.3727 23.6632 15.4601L29.2882 21.0851C29.3756 21.1722 29.445 21.2757 29.4923 21.3896C29.5396 21.5036 29.564 21.6257 29.564 21.7491C29.564 21.8725 29.5396 21.9947 29.4923 22.1086C29.445 22.2226 29.3756 22.3261 29.2882 22.4132Z" fill="white"/>
<ellipse opacity="0.8" cx="22.5" cy="49.5" rx="22.5" ry="4.5" fill="url(#paint0_radial_732_265)"/>
<defs>
<radialGradient id="paint0_radial_732_265" cx="0" cy="0" r="1" gradientUnits="userSpaceOnUse" gradientTransform="translate(22.5 49.5) scale(22.5 4.5)">
<stop offset="0.201" stop-color="#737373" stop-opacity="0.4"/>
<stop offset="1" stop-color="#D9D9D9" stop-opacity="0"/>
</radialGradient>
</defs>
</svg>
