<svg width="40" height="40" viewBox="0 0 40 40" fill="none" xmlns="http://www.w3.org/2000/svg">
<path d="M12.1799 35.1934C11.4766 35.1934 10.8838 34.9523 10.4016 34.4701C9.91936 33.9879 9.67881 33.3956 9.67992 32.6934C9.68103 31.9912 9.92159 31.3984 10.4016 30.9151C10.8838 30.434 11.4766 30.1934 12.1799 30.1934C12.8833 30.1934 13.4755 30.434 13.9566 30.9151C14.4377 31.3962 14.6788 31.989 14.6799 32.6934C14.681 33.3979 14.4399 33.9901 13.9566 34.4701C13.4733 34.9501 12.881 35.1912 12.1799 35.1934ZM27.8199 35.1934C27.1177 35.1934 26.5255 34.9523 26.0433 34.4701C25.561 33.9879 25.3199 33.3956 25.3199 32.6934C25.3199 31.9912 25.561 31.3984 26.0433 30.9151C26.5255 30.434 27.1177 30.1934 27.8199 30.1934C28.5221 30.1934 29.1149 30.434 29.5983 30.9151C30.0794 31.3973 30.3199 31.9901 30.3199 32.6934C30.3199 33.3956 30.0794 33.9879 29.5983 34.4701C29.116 34.9523 28.5233 35.1934 27.8199 35.1934ZM9.80159 9.16675L14.2499 18.5267H25.3083C25.5005 18.5267 25.671 18.4784 25.8199 18.3817C25.9699 18.2851 26.0983 18.1517 26.2049 17.9817L30.5649 10.0651C30.6927 9.82953 30.7033 9.62119 30.5966 9.44008C30.4888 9.25786 30.3071 9.16675 30.0516 9.16675H9.80159ZM8.98659 7.50008H30.6866C31.4099 7.50008 31.9544 7.79564 32.3199 8.38675C32.6866 8.97675 32.706 9.58508 32.3783 10.2117L27.6149 18.8917C27.3738 19.2973 27.0605 19.6156 26.6749 19.8467C26.2894 20.0779 25.8655 20.1934 25.4033 20.1934H13.4999L11.4749 23.9101C11.3038 24.1667 11.2983 24.4445 11.4583 24.7434C11.6183 25.0423 11.8588 25.1923 12.1799 25.1934H30.3199V26.8601H12.1799C11.2077 26.8601 10.4821 26.4501 10.0033 25.6301C9.52436 24.8101 9.5127 23.9867 9.96825 23.1601L12.4749 18.6934L6.34659 5.83341H3.33325V4.16675H7.40325L8.98659 7.50008Z" fill="white"/>
</svg>
