<svg width="40" height="40" viewBox="0 0 40 40" fill="none" xmlns="http://www.w3.org/2000/svg">
<path d="M12.18 35.1934C11.4766 35.1934 10.8839 34.9523 10.4016 34.4701C9.91942 33.9879 9.67887 33.3956 9.67998 32.6934C9.68109 31.9912 9.92165 31.3984 10.4016 30.9151C10.8839 30.434 11.4766 30.1934 12.18 30.1934C12.8833 30.1934 13.4755 30.434 13.9566 30.9151C14.4378 31.3962 14.6789 31.989 14.68 32.6934C14.6811 33.3979 14.44 33.9901 13.9566 34.4701C13.4733 34.9501 12.8811 35.1912 12.18 35.1934ZM27.82 35.1934C27.1178 35.1934 26.5255 34.9523 26.0433 34.4701C25.5611 33.9879 25.32 33.3956 25.32 32.6934C25.32 31.9912 25.5611 31.3984 26.0433 30.9151C26.5255 30.434 27.1178 30.1934 27.82 30.1934C28.5222 30.1934 29.115 30.434 29.5983 30.9151C30.0794 31.3973 30.32 31.9901 30.32 32.6934C30.32 33.3956 30.0794 33.9879 29.5983 34.4701C29.1161 34.9523 28.5233 35.1934 27.82 35.1934ZM9.80165 9.16675L14.25 18.5267H25.3083C25.5005 18.5267 25.6711 18.4784 25.82 18.3817C25.97 18.2851 26.0983 18.1517 26.205 17.9817L30.565 10.0651C30.6928 9.82953 30.7033 9.62119 30.5966 9.44008C30.4889 9.25786 30.3072 9.16675 30.0516 9.16675H9.80165ZM8.98665 7.50008H30.6866C31.41 7.50008 31.9544 7.79564 32.32 8.38675C32.6866 8.97675 32.7061 9.58508 32.3783 10.2117L27.615 18.8917C27.3739 19.2973 27.0605 19.6156 26.675 19.8467C26.2894 20.0779 25.8655 20.1934 25.4033 20.1934H13.5L11.475 23.9101C11.3039 24.1667 11.2983 24.4445 11.4583 24.7434C11.6183 25.0423 11.8589 25.1923 12.18 25.1934H30.32V26.8601H12.18C11.2078 26.8601 10.4822 26.4501 10.0033 25.6301C9.52442 24.8101 9.51276 23.9867 9.96831 23.1601L12.475 18.6934L6.34665 5.83341H3.33331V4.16675H7.40331L8.98665 7.50008Z" fill="#222222"/>
</svg>
