<svg width="50" height="50" viewBox="0 0 50 50" fill="none" xmlns="http://www.w3.org/2000/svg">
<path d="M25.0063 43.75C22.4146 43.75 19.9771 43.2583 17.6937 42.275C15.4118 41.2903 13.4264 39.9542 11.7375 38.2667C10.0486 36.5792 8.71181 34.5958 7.72708 32.3167C6.74236 30.0375 6.25 27.6007 6.25 25.0063C6.25 22.4118 6.74236 19.9743 7.72708 17.6937C8.71042 15.4118 10.0444 13.4264 11.7292 11.7375C13.4139 10.0486 15.3979 8.71181 17.6813 7.72708C19.9646 6.74236 22.4021 6.25 24.9937 6.25C27.5854 6.25 30.0229 6.74236 32.3062 7.72708C34.5882 8.71042 36.5736 10.0451 38.2625 11.7312C39.9514 13.4174 41.2882 15.4014 42.2729 17.6833C43.2576 19.9653 43.75 22.4021 43.75 24.9937C43.75 27.5854 43.2583 30.0229 42.275 32.3062C41.2917 34.5896 39.9556 36.575 38.2667 38.2625C36.5778 39.95 34.5944 41.2868 32.3167 42.2729C30.0389 43.259 27.6021 43.7514 25.0063 43.75ZM27.9417 26.0417L24.2625 29.7208C24.0681 29.9153 23.9778 30.1472 23.9917 30.4167C24.0042 30.6861 24.1083 30.9188 24.3042 31.1146C24.4986 31.309 24.7396 31.4062 25.0271 31.4062C25.3146 31.4062 25.5507 31.309 25.7354 31.1146L30.6729 26.1771C31.0104 25.841 31.1792 25.4486 31.1792 25C31.1792 24.5514 31.0104 24.159 30.6729 23.8229L25.6979 18.8458C25.5035 18.6514 25.2708 18.5542 25 18.5542C24.7292 18.5542 24.4972 18.6514 24.3042 18.8458C24.1111 19.0403 24.0132 19.2819 24.0104 19.5708C24.0076 19.8597 24.1049 20.0958 24.3021 20.2792L27.9417 23.9583H18.75C18.4542 23.9583 18.2069 24.0583 18.0083 24.2583C17.8097 24.4583 17.7097 24.7062 17.7083 25.0021C17.7069 25.2979 17.8069 25.5451 18.0083 25.7437C18.2097 25.9424 18.4569 26.0417 18.75 26.0417H27.9417Z" fill="#222222"/>
</svg>
