<svg width="18" height="18" viewBox="0 0 18 18" fill="none" xmlns="http://www.w3.org/2000/svg">
<path d="M15.7079 13.8241C15.7006 14.0829 15.6414 14.3376 15.5338 14.5731C15.4262 14.8086 15.2724 15.02 15.0815 15.1949C14.8906 15.3698 14.6665 15.5045 14.4225 15.5912C14.1785 15.6778 13.9196 15.7145 13.6612 15.6991C12.0464 15.7081 10.4309 15.6991 8.81616 15.6991C8.71671 15.6991 8.62132 15.6596 8.551 15.5893C8.48067 15.5189 8.44116 15.4236 8.44116 15.3241C8.44116 15.2247 8.48067 15.1293 8.551 15.0589C8.62132 14.9886 8.71671 14.9491 8.81616 14.9491C10.4662 14.9491 12.1162 14.9731 13.7662 14.9491C14.5964 14.9371 14.9579 14.3131 14.9579 13.5706V4.22261C14.9636 3.98657 14.897 3.75444 14.7672 3.55727C14.6373 3.3601 14.4503 3.20731 14.2312 3.11936C13.9723 3.04833 13.7028 3.0242 13.4354 3.04811H8.81616C8.71671 3.04811 8.62132 3.0086 8.551 2.93827C8.48067 2.86795 8.44116 2.77256 8.44116 2.67311C8.44116 2.57365 8.48067 2.47827 8.551 2.40794C8.62132 2.33762 8.71671 2.29811 8.81616 2.29811C10.4849 2.29811 12.1649 2.23436 13.8322 2.29811C14.0874 2.30446 14.3388 2.36154 14.5718 2.46601C14.8047 2.57049 15.0146 2.72027 15.1891 2.90664C15.3636 3.09301 15.4993 3.31224 15.5882 3.55156C15.6772 3.79088 15.7176 4.04551 15.7072 4.30061L15.7079 13.8241Z" fill="black"/>
<path d="M11.8454 9.26544C11.9086 9.20359 11.9457 9.11982 11.9489 9.03144L11.9534 8.99994L11.9489 8.96919C11.9459 8.88055 11.9088 8.79648 11.8454 8.73444L9.09365 5.98344C9.02292 5.91513 8.92819 5.87733 8.82987 5.87819C8.73155 5.87904 8.63749 5.91848 8.56796 5.98801C8.49844 6.05754 8.459 6.15159 8.45814 6.24992C8.45729 6.34824 8.49509 6.44297 8.5634 6.51369L10.6754 8.62494H2.6189C2.51944 8.62494 2.42406 8.66445 2.35373 8.73478C2.28341 8.8051 2.2439 8.90048 2.2439 8.99994C2.2439 9.0994 2.28341 9.19478 2.35373 9.26511C2.42406 9.33543 2.51944 9.37494 2.6189 9.37494H10.6754L8.5634 11.4862C8.49509 11.5569 8.45729 11.6516 8.45814 11.75C8.459 11.8483 8.49844 11.9423 8.56796 12.0119C8.63749 12.0814 8.73155 12.1208 8.82987 12.1217C8.92819 12.1225 9.02292 12.0847 9.09365 12.0164L11.8454 9.26544Z" fill="black"/>
</svg>
