<svg width="100" height="93" viewBox="0 0 100 93" fill="none" xmlns="http://www.w3.org/2000/svg">
<g clip-path="url(#clip0_190_296)">
<path d="M37.1125 35.1666H42.0833C43.125 35.1666 43.75 35.9346 43.75 36.7026V68.1906C43.75 68.9566 42.9167 69.7266 42.0833 69.7266H37.1167C36.2833 69.7266 35.45 68.9586 35.45 68.1906V36.7026C35.2417 35.7426 36.0708 35.1666 37.1125 35.1666ZM29.5833 21.7266H22.7083C21.6667 21.7266 20.8333 22.5003 20.8333 23.276V33.2466H4.58333C3.33333 33.2466 2.08333 34.4082 2.08333 35.5698V67.4034C2.08333 68.5669 3.33333 69.7266 4.58333 69.7266H29.5833C30.4167 69.7266 31.25 69.141 31.25 68.1733V23.276C31.25 22.5003 30.625 21.7266 29.5833 21.7266ZM20.8333 60.6699C20.8333 61.4341 20 62.2059 19.1667 62.2059H14.1667C13.3333 62.2059 12.5 61.4398 12.5 60.6699V42.4626C12.5 41.6946 13.125 40.9266 14.1667 40.9266H19.1667C20.2083 40.9266 20.8333 41.6946 20.8333 42.4626V60.6699ZM69.1667 48.6066C70.2083 48.6066 70.8333 49.7586 70.8333 50.1426V68.1906C70.8333 68.9566 69.9542 69.7266 69.1667 69.7266H49.5833C48.6979 69.7266 47.9167 68.9586 47.9167 68.1906V63.6094C47.9167 62.6494 48.75 62.0754 49.5833 62.0754L62.5 62.0466V56.2866H49.5833C48.8937 56.2866 47.9167 55.5186 47.9167 54.7486V36.7026C47.9167 35.7426 48.75 35.1666 49.5833 35.1666H69.1667C69.9979 35.1666 70.8333 35.9346 70.8333 36.7026V41.3106C70.8333 41.8866 70.2792 42.8466 69.1667 42.8466H56.25V48.6066H69.1667ZM100 54.3666V68.1906C100 68.9566 99.1667 69.7266 98.3313 69.7266H76.6667C76.25 69.7266 75 68.9586 75 68.1906V36.7026C75 35.7426 75.9 35.1666 76.7313 35.1666H98.3333C98.3333 35.1666 100 35.1666 100 36.7026V48.6066H91.6667V44.3826C91.6667 44.3826 91.875 42.8466 90 42.8466H85C83.9583 42.8466 83.3333 43.6146 83.3333 44.3826V60.5106C83.3333 61.2766 84.375 62.0466 85 62.0466H90C90.8313 62.0466 91.6667 61.2786 91.6667 60.5106V54.3666H100Z" fill="#222222"/>
<path d="M95.4146 31.2882H97.7083V25.3381H100V23.6082H93.3312V25.3381H95.4146V31.2882ZM91.6958 28.4005H89.3146V28.5829C89.3146 29.3163 89.1146 29.683 88.1229 29.683C87.1333 29.683 86.9354 29.3163 86.9354 28.22V26.9374C86.9354 25.8392 86.9354 25.4744 88.1229 25.4744C88.9167 25.4744 89.3146 25.6568 89.3146 26.3902V26.5726H91.4958V26.3902C91.4958 24.38 90.7021 23.6466 88.3229 23.6466H87.725C85.3479 23.6466 84.5521 24.38 84.5521 26.7531V28.22C84.5521 30.4126 85.3458 31.3266 87.725 31.3266H88.5229C90.7042 31.3266 91.4979 30.4107 91.4979 28.581V28.3986L91.6958 28.4005ZM61.4917 23.6466L59.8271 29.2146L57.95 23.6466H54.6187V31.3266H56.9083V25.5666L58.5729 31.3266H60.8687L62.7396 25.7586V31.3266H64.8229V23.6466H61.4917ZM80.6521 23.6466H76.9062L74.4083 31.3266H76.9062L77.3208 29.9826H80.2396L80.6542 31.3266H83.1521L80.6521 23.6466ZM78.9875 28.4466H78.1542L78.9875 25.1826L79.8167 28.4466H78.9875ZM70.6667 23.6466H66.7083V31.3266H69.0042V29.2146H70.6688C72.9646 29.2146 73.7938 28.4466 73.7938 26.5266V25.9506C73.7917 24.2226 72.9583 23.6466 70.6667 23.6466ZM71.5 26.7186C71.5 27.4866 71.2917 27.6786 70.6667 27.6786H69.0021V25.3746H70.4604C71.2937 25.3746 71.5021 25.5666 71.5021 26.1426L71.5 26.7186ZM49.1542 23.6466H47.9625C45.5812 23.6466 44.7896 24.38 44.7896 26.7531V28.2162C44.7896 30.4126 45.5833 31.3266 47.9625 31.3266H49.1542C51.5354 31.3266 52.3271 30.4107 52.3271 28.2162V26.7531C52.3271 24.38 51.5354 23.6466 49.1542 23.6466ZM49.9479 27.8514C49.9479 28.9477 49.9479 29.3163 48.7583 29.3163H48.3625C47.1729 29.3163 47.1729 28.9496 47.1729 27.8514V26.7531C47.1729 25.6587 47.1729 25.2901 48.3625 25.2901H48.7583C49.9479 25.2901 49.9479 25.6568 49.9479 26.7531V27.8514ZM42.5458 28.4024H40.1625V28.5848C40.1625 29.3182 39.9646 29.6811 38.9729 29.6811C37.9813 29.6811 37.7833 29.3182 37.7833 28.2181V26.9394C37.7833 25.8392 37.7833 25.4763 38.9729 25.4763C39.7667 25.4763 40.1625 25.6587 40.1625 26.3883V26.5726H42.3458V26.3883C42.3458 24.3781 41.5521 23.6466 39.1729 23.6466H38.5771C36.1958 23.6466 35.4021 24.3781 35.4021 26.7531V28.2181C35.4021 30.4126 36.1958 31.3266 38.5771 31.3266H39.3708C41.5542 31.3266 42.3479 30.4107 42.3479 28.5829V28.4005H42.5458V28.4024Z" fill="#222222"/>
</g>
<defs>
<clipPath id="clip0_190_296">
<rect width="100" height="92.16" fill="white" transform="translate(0 0.606445)"/>
</clipPath>
</defs>
</svg>
