<svg width="18" height="18" viewBox="0 0 18 18" fill="none" xmlns="http://www.w3.org/2000/svg">
<path d="M16.1024 8.38883L15.3299 7.31633C15.157 7.07349 14.9287 6.87537 14.6639 6.73841C14.3991 6.60146 14.1055 6.52961 13.8074 6.52883H10.5224V4.92383C10.5224 4.42655 10.3249 3.94963 9.97325 3.598C9.62162 3.24637 9.1447 3.04883 8.64742 3.04883H3.41992C2.92307 3.05021 2.44696 3.2482 2.09563 3.59953C1.7443 3.95086 1.54631 4.42697 1.54492 4.92383V12.3788C1.54492 12.6772 1.66345 12.9633 1.87443 13.1743C2.08541 13.3853 2.37155 13.5038 2.66992 13.5038H3.58492C3.64155 13.9051 3.8412 14.2724 4.14713 14.5382C4.45305 14.804 4.84467 14.9503 5.24992 14.9503C5.65517 14.9503 6.04679 14.804 6.35272 14.5382C6.65864 14.2724 6.85829 13.9051 6.91492 13.5038H11.0849C11.1416 13.9051 11.3412 14.2724 11.6471 14.5382C11.9531 14.804 12.3447 14.9503 12.7499 14.9503C13.1552 14.9503 13.5468 14.804 13.8527 14.5382C14.1586 14.2724 14.3583 13.9051 14.4149 13.5038H15.3299C15.6283 13.5038 15.9144 13.3853 16.1254 13.1743C16.3364 12.9633 16.4549 12.6772 16.4549 12.3788V9.47633C16.4535 9.08597 16.3303 8.7058 16.1024 8.38883ZM5.24992 14.2013C5.0645 14.2013 4.88325 14.1463 4.72907 14.0433C4.5749 13.9403 4.45474 13.7939 4.38378 13.6226C4.31283 13.4513 4.29426 13.2628 4.33044 13.0809C4.36661 12.8991 4.4559 12.732 4.58701 12.6009C4.71812 12.4698 4.88517 12.3805 5.06702 12.3443C5.24888 12.3082 5.43738 12.3267 5.60869 12.3977C5.77999 12.4686 5.92641 12.5888 6.02942 12.743C6.13244 12.8972 6.18742 13.0784 6.18742 13.2638C6.18742 13.5125 6.08865 13.7509 5.91283 13.9267C5.73702 14.1026 5.49856 14.2013 5.24992 14.2013ZM9.77242 12.7538H6.86242C6.75322 12.4119 6.53817 12.1136 6.24832 11.9019C5.95848 11.6902 5.60884 11.5761 5.24992 11.5761C4.891 11.5761 4.54137 11.6902 4.25152 11.9019C3.96168 12.1136 3.74662 12.4119 3.63742 12.7538H2.66992C2.57047 12.7538 2.47508 12.7143 2.40476 12.644C2.33443 12.5737 2.29492 12.4783 2.29492 12.3788V4.92383C2.29492 4.62546 2.41345 4.33931 2.62443 4.12833C2.83541 3.91735 3.12155 3.79883 3.41992 3.79883H8.64742C8.94579 3.79883 9.23194 3.91735 9.44292 4.12833C9.6539 4.33931 9.77242 4.62546 9.77242 4.92383V12.7538ZM12.7499 14.2013C12.5645 14.2013 12.3832 14.1463 12.2291 14.0433C12.0749 13.9403 11.9547 13.7939 11.8838 13.6226C11.8128 13.4513 11.7943 13.2628 11.8304 13.0809C11.8666 12.8991 11.9559 12.732 12.087 12.6009C12.2181 12.4698 12.3852 12.3805 12.567 12.3443C12.7489 12.3082 12.9374 12.3267 13.1087 12.3977C13.28 12.4686 13.4264 12.5888 13.5294 12.743C13.6324 12.8972 13.6874 13.0784 13.6874 13.2638C13.6874 13.5125 13.5887 13.7509 13.4128 13.9267C13.237 14.1026 12.9986 14.2013 12.7499 14.2013ZM15.7049 12.3788C15.7049 12.4783 15.6654 12.5737 15.5951 12.644C15.5248 12.7143 15.4294 12.7538 15.3299 12.7538H14.3624C14.2532 12.4119 14.0382 12.1136 13.7483 11.9019C13.4585 11.6902 13.1088 11.5761 12.7499 11.5761C12.391 11.5761 12.0414 11.6902 11.7515 11.9019C11.4617 12.1136 11.2466 12.4119 11.1374 12.7538H10.5224V7.27883H13.8074C13.9863 7.28027 14.1624 7.32379 14.3213 7.40587C14.4803 7.48796 14.6177 7.6063 14.7224 7.75133L15.4949 8.82383C15.6298 9.01485 15.703 9.24251 15.7049 9.47633V12.3788Z" fill="black"/>
<path d="M13.5217 9.15381H12.0217C11.9223 9.15381 11.8269 9.1143 11.7566 9.04397C11.6862 8.97365 11.6467 8.87826 11.6467 8.77881C11.6467 8.67935 11.6862 8.58397 11.7566 8.51364C11.8269 8.44332 11.9223 8.40381 12.0217 8.40381H13.5217C13.6212 8.40381 13.7166 8.44332 13.7869 8.51364C13.8572 8.58397 13.8967 8.67935 13.8967 8.77881C13.8967 8.87826 13.8572 8.97365 13.7869 9.04397C13.7166 9.1143 13.6212 9.15381 13.5217 9.15381Z" fill="black"/>
</svg>
