<svg width="40" height="40" viewBox="0 0 40 40" fill="none" xmlns="http://www.w3.org/2000/svg">
<path d="M15.8983 25.3834C13.2339 25.3834 10.9756 24.4579 9.12335 22.6068C7.27224 20.7568 6.34668 18.499 6.34668 15.8334C6.34668 13.1679 7.27224 10.9096 9.12335 9.05845C10.9745 7.20734 13.2328 6.28234 15.8983 6.28345C18.5639 6.28456 20.8217 7.21011 22.6717 9.06011C24.5217 10.9101 25.4472 13.1679 25.4483 15.8334C25.4483 16.9912 25.2433 18.1118 24.8333 19.1951C24.4233 20.2784 23.8845 21.2051 23.2167 21.9751L33.065 31.8201C33.2206 31.9757 33.3039 32.1673 33.315 32.3951C33.325 32.6207 33.2417 32.8223 33.065 33.0001C32.8872 33.1779 32.6906 33.2668 32.475 33.2668C32.2595 33.2668 32.0628 33.1779 31.885 33.0001L22.0383 23.1534C21.205 23.8634 20.2467 24.4129 19.1633 24.8018C18.08 25.1907 16.9911 25.3851 15.8967 25.3851M15.8967 23.7184C18.1078 23.7184 19.975 22.9573 21.4983 21.4351C23.0206 19.9129 23.7817 18.0457 23.7817 15.8334C23.7817 13.6212 23.0211 11.7546 21.5 10.2334C19.9789 8.71234 18.1122 7.95123 15.9 7.95011C13.6878 7.95011 11.8206 8.71123 10.2983 10.2334C8.77612 11.7557 8.01446 13.6223 8.01335 15.8334C8.01224 18.0446 8.77335 19.9112 10.2967 21.4334C11.82 22.9557 13.6867 23.7168 15.8967 23.7168" fill="#222222"/>
</svg>
