<svg width="17" height="17" viewBox="0 0 17 17" fill="none" xmlns="http://www.w3.org/2000/svg">
<path d="M14.6186 10.013L14.5832 9.66098L14.5725 9.66169L14.5605 9.66381L14.6186 10.013ZM14.6186 10.013L14.654 10.3658L14.666 10.3644L14.6774 10.3622L14.6186 10.013ZM11.7569 13.8961L11.9815 13.622L11.9779 13.6199L11.7569 13.8961ZM11.7569 13.8961L11.5324 14.1702L11.5359 14.1731L11.7569 13.8961ZM5.24308 13.8961L5.01854 13.6227L5.01358 13.6269L5.00792 13.6319L5.24308 13.8961ZM5.24308 13.8961L5.46763 14.1709L5.47329 14.166L5.47825 14.1617L5.24308 13.8961ZM2.38071 6.98702V6.63286H2.36371L2.346 6.63427L2.38071 6.98702ZM2.38071 6.98702V7.34119H2.39842L2.41613 7.33907L2.38071 6.98702ZM10.3643 2.34532C10.3537 2.21688 10.3388 2.08884 10.3197 1.9614C10.3035 1.84863 10.2696 1.73914 10.2191 1.63698L9.58942 1.96211C9.5965 1.97627 9.60854 2.00461 9.62058 2.07827C9.63404 2.15619 9.64396 2.25748 9.66025 2.41544L10.3643 2.34532ZM10.5032 3.19744C10.4947 3.18682 10.4692 3.14361 10.4415 2.99202C10.4086 2.7774 10.3838 2.5617 10.3658 2.34532L9.66025 2.41544C9.68858 2.69948 9.71196 2.93465 9.74454 3.1174C9.77642 3.2959 9.826 3.47794 9.94004 3.6274L10.5032 3.19744ZM10.8318 3.33344C10.7699 3.34177 10.7069 3.33358 10.6492 3.30969C10.5915 3.28581 10.5411 3.24708 10.5032 3.19744L9.93933 3.62669C10.0531 3.77585 10.2043 3.89224 10.3776 3.96403C10.5509 4.03582 10.7401 4.06044 10.926 4.0354L10.8318 3.33344ZM11.5317 2.8284C11.3015 3.01752 11.1442 3.14573 11.0203 3.23144C10.8935 3.31927 10.8446 3.33132 10.8318 3.33344L10.926 4.0354C11.1116 4.01061 11.2753 3.91711 11.4247 3.81298C11.577 3.70673 11.759 3.55798 11.9808 3.37665L11.5317 2.8284ZM12.1352 2.43102C12.0218 2.46715 11.9262 2.52452 11.8355 2.58898C11.7477 2.65132 11.6478 2.73348 11.5317 2.8284L11.9808 3.37665C12.1033 3.27607 12.1826 3.21161 12.2464 3.16627C12.278 3.14077 12.3134 3.12023 12.3512 3.10536L12.1352 2.43102ZM12.881 2.46786C12.6451 2.36573 12.3801 2.35265 12.1352 2.43102L12.3512 3.10536C12.4327 3.07956 12.5207 3.08409 12.5991 3.11811L12.881 2.46786ZM13.442 2.92402C13.3358 2.81777 13.2444 2.72569 13.1637 2.65486C13.0799 2.57803 12.9845 2.51492 12.881 2.46786L12.5991 3.11811C12.614 3.12448 12.6409 3.13936 12.6976 3.18894C12.7564 3.23994 12.8286 3.31219 12.9413 3.42482L13.442 2.92402ZM14.0746 3.55657L13.442 2.92402L12.9413 3.42482L13.5738 4.05736L14.0746 3.55657ZM14.5308 4.11757C14.4834 4.01407 14.4201 3.91869 14.343 3.83494C14.2722 3.75419 14.1801 3.66282 14.0746 3.55657L13.5738 4.05736C13.6864 4.16998 13.758 4.24223 13.8104 4.30102C13.86 4.35769 13.8741 4.38461 13.8805 4.39948L14.5308 4.11757ZM14.5676 4.86344C14.646 4.61855 14.6329 4.35354 14.5308 4.11757L13.8805 4.39948C13.9143 4.47796 13.9186 4.56601 13.8925 4.6474L14.5676 4.86344ZM14.1702 5.46694C14.2651 5.35077 14.3473 5.2509 14.4096 5.16307C14.4734 5.0724 14.5315 4.97677 14.5676 4.86344L13.8925 4.6474C13.8779 4.68519 13.8576 4.72054 13.8323 4.75223C13.7649 4.84284 13.6947 4.93142 13.622 5.01786L14.1702 5.46694ZM13.6652 6.16677C13.6673 6.15402 13.6793 6.10515 13.7672 5.97836C13.8529 5.8544 13.9811 5.69715 14.1702 5.46694L13.622 5.01786C13.4406 5.23957 13.2912 5.42161 13.1856 5.5739C13.0815 5.72265 12.988 5.88698 12.9632 6.07257L13.6652 6.16677ZM13.8012 6.49544C13.7515 6.45752 13.7128 6.40714 13.6889 6.34942C13.665 6.2917 13.6568 6.22868 13.6652 6.16677L12.9632 6.07257C12.9383 6.25836 12.963 6.44744 13.0348 6.62061C13.1065 6.79378 13.2229 6.94488 13.3719 7.05857L13.8012 6.49544ZM14.6533 6.63357C14.3565 6.60382 14.1553 6.58398 14.0066 6.55707C13.855 6.52944 13.8118 6.50394 13.8012 6.49544L13.3719 7.05857C13.5207 7.1719 13.7027 7.22148 13.8819 7.25407C14.064 7.28665 14.2984 7.31073 14.5832 7.33907L14.6533 6.63357ZM15.3616 6.77948C15.2595 6.72906 15.15 6.69511 15.0372 6.6789C14.931 6.66119 14.802 6.64844 14.6533 6.63357L14.5825 7.33836C14.7411 7.35465 14.8424 7.36457 14.9203 7.37802C14.9604 7.38253 14.9996 7.39304 15.0365 7.40919L15.3616 6.77948ZM15.8624 7.33269C15.7679 7.09381 15.59 6.89727 15.3616 6.77948L15.0365 7.40919C15.1127 7.44835 15.172 7.51378 15.2037 7.59336L15.8624 7.33269ZM15.9368 8.05165C15.9368 7.90219 15.9368 7.77257 15.9297 7.6649C15.9249 7.55131 15.9022 7.43919 15.8624 7.33269L15.2037 7.59336C15.2093 7.60823 15.2178 7.63798 15.2228 7.71236C15.2283 7.8256 15.2302 7.93899 15.2285 8.05236L15.9368 8.05165ZM15.9368 8.94698V8.05165H15.2285V8.94698H15.9368ZM15.8624 9.66523C15.9063 9.55473 15.9226 9.44423 15.9297 9.33302C15.9368 9.22606 15.9368 9.09644 15.9368 8.94698H15.2285C15.2285 9.10565 15.2285 9.20765 15.2228 9.28627C15.2224 9.32668 15.216 9.36679 15.2037 9.40527L15.8624 9.66523ZM15.3616 10.2191C15.5901 10.1012 15.768 9.90438 15.8624 9.66523L15.2037 9.40527C15.172 9.48485 15.1127 9.55028 15.0365 9.58944L15.3616 10.2191ZM14.6533 10.3651C14.802 10.3502 14.9317 10.3367 15.0372 10.319C15.147 10.3013 15.2554 10.2737 15.3609 10.2199L15.0365 9.58944C14.9996 9.60562 14.9604 9.61613 14.9203 9.62061C14.8424 9.63406 14.7411 9.64398 14.5832 9.66027L14.6533 10.3651ZM13.8019 10.5032C13.8125 10.4947 13.8557 10.4685 14.0073 10.4416C14.156 10.4146 14.3572 10.3941 14.6533 10.3651L14.5832 9.66027C14.2991 9.68861 14.064 9.71127 13.8812 9.74457C13.7027 9.77644 13.5214 9.82602 13.3719 9.93936L13.8019 10.5032ZM13.6652 10.8319C13.6569 10.7699 13.6652 10.7068 13.6892 10.6491C13.7132 10.5914 13.7521 10.541 13.8019 10.5032L13.3719 9.93936C13.2228 10.0531 13.1064 10.2043 13.0346 10.3776C12.9628 10.5509 12.9382 10.7402 12.9632 10.9261L13.6652 10.8319ZM14.1702 11.5317C14.03 11.3659 13.8956 11.1953 13.7672 11.0203C13.6793 10.8942 13.6673 10.8446 13.6652 10.8319L12.9639 10.9268C12.9887 11.1124 13.0822 11.2753 13.1856 11.4247C13.2919 11.5763 13.4406 11.7591 13.622 11.9801L14.1702 11.5317ZM14.5676 12.1352C14.531 12.0274 14.4777 11.926 14.4096 11.8349C14.333 11.7313 14.2532 11.6302 14.1702 11.5317L13.622 11.9801C13.7225 12.1033 13.787 12.1819 13.8323 12.2464C13.8575 12.2779 13.8778 12.313 13.8925 12.3505L14.5676 12.1352ZM14.5308 12.8811C14.6329 12.6451 14.646 12.3801 14.5676 12.1352L13.8925 12.3505C13.9187 12.4321 13.9145 12.5205 13.8805 12.5991L14.5308 12.8811ZM14.0753 13.4414C14.1808 13.3358 14.2722 13.2444 14.343 13.1637C14.4167 13.0794 14.4833 12.9909 14.5308 12.8811L13.8805 12.5991C13.862 12.6351 13.8381 12.6681 13.8097 12.6969C13.7335 12.7805 13.6548 12.8617 13.5738 12.9406L14.0753 13.4414ZM13.442 14.0746L14.0753 13.4414L13.5738 12.9406L12.9413 13.5738L13.442 14.0746ZM12.881 14.5301C12.9901 14.4826 13.0794 14.4167 13.1637 14.3431C13.2444 14.2722 13.3358 14.1801 13.442 14.0739L12.9413 13.5738C12.8286 13.6864 12.7564 13.758 12.6976 13.8097C12.6685 13.8381 12.6353 13.862 12.5991 13.8805L12.881 14.5301ZM12.1352 14.5676C12.3801 14.6458 12.6452 14.6324 12.881 14.5301L12.5991 13.8805C12.5206 13.9143 12.4326 13.9186 12.3512 13.8926L12.1352 14.5676ZM11.5317 14.1695C11.6478 14.2644 11.7477 14.3466 11.8355 14.4089C11.9262 14.4734 12.0218 14.5315 12.1352 14.5676L12.3512 13.8926C12.3134 13.8779 12.2781 13.8576 12.2464 13.8324C12.1558 13.7647 12.0672 13.6943 11.9808 13.6213L11.5317 14.1695ZM10.8318 13.6652C10.8446 13.6666 10.8942 13.6794 11.0203 13.7672C11.1442 13.8529 11.3015 13.9811 11.5317 14.1695L11.9808 13.6213C11.759 13.4406 11.577 13.2912 11.4247 13.1849C11.276 13.0815 11.1116 12.988 10.926 12.9632L10.8318 13.6652ZM10.5032 13.8012C10.5411 13.7515 10.5915 13.7128 10.6492 13.6889C10.7069 13.6651 10.7699 13.6569 10.8318 13.6652L10.926 12.9632C10.7403 12.9382 10.5513 12.9628 10.3781 13.0345C10.2049 13.1061 10.0538 13.2223 9.94004 13.3712L10.5032 13.8012ZM10.365 14.6533C10.3948 14.3565 10.4146 14.1554 10.4415 14.0066C10.4692 13.855 10.4947 13.8118 10.5032 13.8012L9.94004 13.3712C9.82671 13.52 9.77713 13.7027 9.74454 13.8812C9.71196 14.0633 9.68788 14.2977 9.65954 14.5825L10.365 14.6533ZM10.2191 15.3616C10.2737 15.2554 10.3006 15.147 10.319 15.0372C10.3374 14.931 10.3502 14.8021 10.365 14.6533L9.65954 14.5825C9.64971 14.6955 9.63719 14.8082 9.62058 14.9204C9.61609 14.9604 9.60558 14.9996 9.58942 15.0365L10.2191 15.3616ZM9.66592 15.8624C9.9048 15.7679 10.1013 15.59 10.2191 15.3616L9.58942 15.0365C9.55026 15.1127 9.48483 15.1721 9.40525 15.2037L9.66592 15.8624ZM8.94696 15.9368C9.09642 15.9368 9.22604 15.9368 9.33371 15.9297C9.44421 15.9226 9.55542 15.9064 9.66592 15.8624L9.40525 15.2037C9.36677 15.216 9.32665 15.2225 9.28625 15.2228C9.20833 15.2285 9.10563 15.2285 8.94625 15.2285L8.94696 15.9368ZM8.05163 15.9368H8.94696L8.94625 15.2285H8.05163V15.9368ZM7.33267 15.8624C7.44388 15.9064 7.55438 15.9226 7.66558 15.9297C7.77254 15.9368 7.90217 15.9368 8.05163 15.9368V15.2285C7.89296 15.2285 7.79096 15.2285 7.71233 15.2228C7.67193 15.2225 7.63182 15.216 7.59333 15.2037L7.33267 15.8624ZM6.77946 15.3616C6.89725 15.59 7.09378 15.7679 7.33267 15.8624L7.59333 15.2037C7.51375 15.1721 7.44833 15.1127 7.40917 15.0365L6.77946 15.3616ZM6.63354 14.6533C6.64842 14.8021 6.66188 14.9317 6.67888 15.0372C6.69729 15.147 6.72492 15.2554 6.77946 15.3616L7.40917 15.0365C7.39302 14.9996 7.38251 14.9604 7.378 14.9204C7.3614 14.8084 7.34818 14.696 7.33833 14.5832L6.63354 14.6533ZM6.49542 13.8012C6.50392 13.8118 6.52942 13.855 6.55704 14.0066C6.58396 14.1554 6.60379 14.3572 6.63354 14.6533L7.33833 14.5832C7.31 14.2991 7.28663 14.064 7.25404 13.8812C7.22217 13.7027 7.17258 13.5207 7.05854 13.3712L6.49542 13.8012ZM6.16675 13.6652C6.22866 13.6569 6.29167 13.6651 6.34939 13.6889C6.40712 13.7128 6.45749 13.7515 6.49542 13.8012L7.05854 13.3712C6.94486 13.2222 6.79376 13.1066 6.62059 13.0348C6.44742 12.963 6.25834 12.9383 6.07254 12.9632L6.16675 13.6652ZM5.46692 14.1702C5.69713 13.9811 5.85437 13.8529 5.97833 13.7672C6.10512 13.6794 6.154 13.6666 6.16675 13.6652L6.07254 12.9632C5.88696 12.988 5.72333 13.0815 5.57388 13.1856C5.42158 13.2912 5.23954 13.4406 5.01783 13.622L5.46692 14.1702ZM4.86342 14.5676C4.97675 14.5315 5.07238 14.4741 5.16304 14.4096C5.25088 14.3473 5.35075 14.2651 5.46692 14.1702L5.01783 13.622C4.9314 13.6947 4.84282 13.7649 4.75221 13.8324C4.72053 13.8576 4.68518 13.8779 4.64738 13.8926L4.86342 14.5676ZM4.11754 14.5315C4.35352 14.6336 4.61853 14.646 4.86342 14.5676L4.64738 13.8926C4.56599 13.9186 4.47794 13.9143 4.39946 13.8805L4.11754 14.5315ZM3.55654 14.0746C3.66279 14.1809 3.75417 14.2729 3.83492 14.3438C3.9185 14.4167 4.00846 14.484 4.11754 14.5315L4.39946 13.8805C4.36323 13.8621 4.33003 13.8382 4.301 13.8097C4.21747 13.7335 4.13621 13.6548 4.05733 13.5738L3.55654 14.0746ZM2.924 13.4421L3.55654 14.0746L4.05733 13.5738L3.42479 12.9413L2.924 13.4421ZM2.46783 12.8811C2.51529 12.9901 2.58188 13.0794 2.65554 13.1637C2.72638 13.2444 2.81846 13.3358 2.924 13.4421L3.42479 12.9413C3.34354 12.8624 3.26464 12.7812 3.18821 12.6976C3.15975 12.6686 3.13587 12.6354 3.11738 12.5991L2.46783 12.8811ZM2.431 12.1352C2.35262 12.3801 2.36571 12.6451 2.46783 12.8811L3.11738 12.5991C3.08335 12.5208 3.07953 12.4327 3.10533 12.3512L2.431 12.1352ZM2.82838 11.5317C2.73346 11.6479 2.65129 11.7477 2.58896 11.8356C2.52091 11.9265 2.4676 12.0276 2.431 12.1352L3.10533 12.3512C3.12021 12.3134 3.14075 12.2781 3.16625 12.2464C3.21158 12.1826 3.27604 12.1033 3.37663 11.9808L2.82838 11.5317ZM3.33342 10.8319C3.33129 10.8446 3.31925 10.8935 3.23142 11.0203C3.145 11.1442 3.0175 11.3015 2.82838 11.5317L3.37663 11.9808C3.55796 11.7591 3.70742 11.577 3.81296 11.4247C3.91708 11.276 4.01058 11.1116 4.03538 10.9261L3.33342 10.8319ZM3.19742 10.5032C3.24706 10.5411 3.28578 10.5915 3.30967 10.6492C3.33355 10.7069 3.34175 10.7699 3.33342 10.8319L4.03538 10.9261C4.06029 10.7403 4.0356 10.5512 3.96382 10.378C3.89204 10.2048 3.77572 10.0538 3.62667 9.94007L3.19742 10.5032ZM2.34529 10.3658C2.64208 10.3948 2.84325 10.4146 2.992 10.4416C3.14358 10.4692 3.18679 10.4947 3.19742 10.5032L3.62667 9.93936C3.47792 9.82602 3.29588 9.77644 3.11667 9.74457C2.93463 9.71198 2.70017 9.6879 2.41542 9.65956L2.34529 10.3658ZM1.63696 10.2191C1.74321 10.2737 1.85158 10.3006 1.96138 10.319C2.06763 10.3374 2.19583 10.3509 2.34529 10.3658L2.41613 9.66027C2.30313 9.65045 2.19045 9.63722 2.07825 9.62061C2.03818 9.6161 1.99903 9.60559 1.96208 9.58944L1.63696 10.2191ZM1.13617 9.66523C1.23058 9.90438 1.40851 10.1012 1.63696 10.2191L1.96208 9.58944C1.88593 9.55028 1.82654 9.48485 1.79492 9.40527L1.13617 9.66523ZM1.0625 8.9484C1.0625 9.09786 1.0625 9.22748 1.06958 9.33515C1.07417 9.44853 1.09689 9.56045 1.13688 9.66665L1.79563 9.40669C1.78331 9.36821 1.77686 9.32809 1.7765 9.28769C1.77124 9.17444 1.76935 9.06105 1.77083 8.94769L1.0625 8.9484ZM1.0625 8.05307V8.9484H1.77083V8.05307H1.0625ZM1.13688 7.33411C1.09704 7.44084 1.07433 7.5532 1.06958 7.66702C1.0625 7.77398 1.0625 7.90361 1.0625 8.05307H1.77083C1.77083 7.8944 1.77083 7.7924 1.7765 7.71377C1.77684 7.67337 1.78329 7.63325 1.79563 7.59477L1.13688 7.33411ZM1.63767 6.7809C1.40934 6.89869 1.23143 7.09522 1.13688 7.33411L1.79563 7.59477C1.82725 7.51519 1.88664 7.44977 1.96279 7.41061L1.63767 6.7809ZM2.346 6.63427C2.19725 6.64915 2.06763 6.66332 1.96208 6.68032C1.84932 6.69653 1.73982 6.73047 1.63767 6.7809L1.96279 7.41061C1.97696 7.40352 2.00529 7.39148 2.07896 7.37944C2.15688 7.36598 2.25817 7.35607 2.41613 7.33977L2.346 6.63427ZM3.19813 6.49686C3.1875 6.50536 3.14429 6.53086 2.99271 6.55848C2.84396 6.5854 2.64279 6.60452 2.346 6.63427L2.41613 7.33977C2.70017 7.31144 2.93604 7.28807 3.11808 7.25548C3.29729 7.22361 3.47933 7.17402 3.62808 7.05998L3.19813 6.49686ZM3.33413 6.16819C3.34246 6.2301 3.33426 6.29311 3.31038 6.35083C3.28649 6.40856 3.24777 6.45893 3.19813 6.49686L3.62808 7.05998C3.777 6.94621 3.89319 6.79508 3.96484 6.62192C4.0365 6.44875 4.06107 6.25901 4.03608 6.07327L3.33413 6.16819ZM2.82908 5.46765C3.01821 5.69857 3.14642 5.85582 3.23283 5.97977C3.32067 6.10657 3.332 6.15544 3.33413 6.16819L4.03608 6.07327C4.01129 5.88769 3.91779 5.72477 3.81367 5.57532C3.70813 5.42302 3.55867 5.24098 3.37733 5.01927L2.82908 5.46765ZM2.43171 4.86415C2.46713 4.97748 2.52521 5.07382 2.58967 5.16448C2.652 5.25161 2.73417 5.35219 2.82908 5.46765L3.37733 5.01927C3.30458 4.9326 3.23443 4.84379 3.16696 4.75294C3.14152 4.7215 3.12098 4.6864 3.10604 4.64882L2.43171 4.86415ZM2.46854 4.11898C2.36659 4.35475 2.35351 4.61947 2.43171 4.86415L3.10604 4.64882C3.08024 4.56735 3.08477 4.47929 3.11879 4.4009L2.46854 4.11898ZM2.92471 3.55798C2.81846 3.66352 2.72638 3.7549 2.65554 3.83636C2.57873 3.92014 2.51562 4.01552 2.46854 4.11898L3.11879 4.4009C3.13733 4.36493 3.16122 4.33126 3.18963 4.30244C3.26551 4.21861 3.34418 4.13734 3.4255 4.05877L2.92471 3.55798ZM3.55725 2.92473L2.92471 3.55798L3.4255 4.05877L4.05804 3.42552L3.55725 2.92473ZM4.11825 2.46927C4.01482 2.5164 3.91944 2.57951 3.83563 2.65627C3.75488 2.72711 3.66279 2.81848 3.55725 2.92473L4.05804 3.42552C4.17067 3.31361 4.24292 3.24136 4.30171 3.18965C4.35838 3.14007 4.38529 3.1259 4.40017 3.11882L4.11825 2.46927ZM4.86413 2.43173C4.61915 2.35358 4.35414 2.36692 4.11825 2.46927L4.40017 3.11882C4.47856 3.08479 4.56661 3.08097 4.64808 3.10677L4.86413 2.43173ZM5.46763 2.82982C5.35146 2.7349 5.25158 2.65273 5.16375 2.5904C5.07285 2.52207 4.97173 2.46852 4.86413 2.43173L4.64808 3.10677C4.68587 3.12143 4.72122 3.14173 4.75292 3.16698C4.81667 3.21302 4.896 3.27748 5.01925 3.37807L5.46763 2.82982ZM6.16746 3.33486C6.15471 3.33273 6.10583 3.32069 5.97904 3.23286C5.80398 3.1042 5.6334 2.97024 5.46763 2.82982L5.01925 3.37807C5.24025 3.5594 5.423 3.70886 5.57458 3.8144C5.72333 3.91782 5.88767 4.01132 6.07325 4.03682L6.16746 3.33486ZM6.49612 3.19815C6.45828 3.24792 6.40794 3.28678 6.35021 3.31079C6.29249 3.33481 6.22943 3.34311 6.16746 3.33486L6.07325 4.03682C6.25909 4.06194 6.44828 4.03671 6.62158 3.96505C6.79488 3.89339 6.94613 3.77714 7.05996 3.62811L6.49612 3.19815ZM6.63425 2.34673C6.6045 2.64282 6.58467 2.84469 6.55775 2.99273C6.53013 3.14432 6.50462 3.18752 6.49612 3.19815L7.05996 3.62811C7.17329 3.47936 7.22288 3.29732 7.25475 3.11811C7.28733 2.93607 7.31142 2.70161 7.33975 2.41686L6.63425 2.34673ZM6.78017 1.6384C6.72563 1.74465 6.698 1.85302 6.67958 1.96282C6.66188 2.06907 6.64913 2.19727 6.63425 2.34673L7.33904 2.41757C7.34887 2.30457 7.3621 2.19189 7.37871 2.07969C7.38318 2.03962 7.39368 2.00045 7.40988 1.96352L6.78017 1.6384ZM7.33408 1.13761C7.09482 1.23219 6.898 1.40968 6.78017 1.6384L7.40988 1.96352C7.44904 1.88737 7.51446 1.82798 7.59404 1.79636L7.33408 1.13761ZM8.05233 1.06323C7.90288 1.06323 7.77325 1.06323 7.66558 1.07032C7.5522 1.0749 7.44028 1.09762 7.33408 1.13761L7.59404 1.79636C7.63252 1.78402 7.67264 1.77757 7.71304 1.77723C7.79096 1.77157 7.89367 1.77157 8.05304 1.77157L8.05233 1.06323ZM8.94767 1.06323H8.05233V1.77157H8.94767V1.06323ZM9.66663 1.13761C9.5599 1.09776 9.44754 1.07505 9.33371 1.07032C9.22675 1.06323 9.09713 1.06323 8.94767 1.06323V1.77157C9.10633 1.77157 9.20833 1.77157 9.28696 1.77723C9.32734 1.7778 9.36743 1.78425 9.40596 1.79636L9.66663 1.13761ZM10.2198 1.6384C10.1019 1.40995 9.90507 1.23202 9.66592 1.13761L9.40596 1.79636C9.48554 1.82798 9.55096 1.88737 9.59013 1.96352L10.2198 1.6384ZM10.9792 8.50002C10.9792 9.15754 10.718 9.78813 10.253 10.2531C9.7881 10.718 9.15752 10.9792 8.5 10.9792V11.6875C9.34538 11.6875 10.1561 11.3517 10.7539 10.7539C11.3517 10.1562 11.6875 9.3454 11.6875 8.50002H10.9792ZM8.5 6.02086C9.15752 6.02086 9.7881 6.28205 10.253 6.74699C10.718 7.21192 10.9792 7.84251 10.9792 8.50002H11.6875C11.6875 7.65465 11.3517 6.84389 10.7539 6.24612C10.1561 5.64835 9.34538 5.31252 8.5 5.31252V6.02086ZM6.02083 8.50002C6.02083 7.84251 6.28203 7.21192 6.74696 6.74699C7.2119 6.28205 7.84248 6.02086 8.5 6.02086V5.31252C7.65462 5.31252 6.84387 5.64835 6.2461 6.24612C5.64833 6.84389 5.3125 7.65465 5.3125 8.50002H6.02083ZM8.5 10.9792C7.84248 10.9792 7.2119 10.718 6.74696 10.2531C6.28203 9.78813 6.02083 9.15754 6.02083 8.50002H5.3125C5.3125 9.3454 5.64833 10.1562 6.2461 10.7539C6.84387 11.3517 7.65462 11.6875 8.5 11.6875V10.9792Z" fill="#222222"/>
</svg>
