<svg width="18" height="18" viewBox="0 0 18 18" fill="none" xmlns="http://www.w3.org/2000/svg">
<path d="M13.0784 16.4529H4.92139C4.42411 16.4529 3.94719 16.2553 3.59556 15.9037C3.24393 15.5521 3.04639 15.0751 3.04639 14.5779V13.9576C3.04639 10.9809 5.71714 8.55761 8.99989 8.55761C12.2826 8.55761 14.9534 10.9794 14.9534 13.9576V14.5779C14.9534 15.0751 14.7558 15.5521 14.4042 15.9037C14.0526 16.2553 13.5757 16.4529 13.0784 16.4529ZM8.99989 9.30911C6.13039 9.30911 3.79639 11.3941 3.79639 13.9591V14.5794C3.79639 14.8777 3.91491 15.1639 4.12589 15.3749C4.33687 15.5858 4.62302 15.7044 4.92139 15.7044H13.0784C13.3768 15.7044 13.6629 15.5858 13.8739 15.3749C14.0849 15.1639 14.2034 14.8777 14.2034 14.5794V13.9576C14.2034 11.3941 11.8694 9.30911 8.99989 9.30911ZM8.99989 7.43336C8.41778 7.43351 7.84871 7.26103 7.36464 6.93774C6.88057 6.61445 6.50324 6.15487 6.28037 5.61712C6.05751 5.07937 5.99912 4.48761 6.11259 3.91667C6.22607 3.34574 6.5063 2.82128 6.91786 2.40961C7.32941 1.99795 7.8538 1.71759 8.42471 1.60397C8.99562 1.49035 9.58739 1.54859 10.1252 1.77132C10.663 1.99404 11.1227 2.37125 11.4461 2.85524C11.7695 3.33923 11.9421 3.90826 11.9421 4.49036C11.9415 5.27058 11.6314 6.01869 11.0798 6.57046C10.5281 7.12223 9.78011 7.43257 8.99989 7.43336ZM8.99989 2.29811C8.56609 2.29797 8.14199 2.42648 7.78124 2.66739C7.42049 2.9083 7.13929 3.25079 6.97321 3.65154C6.80714 4.05229 6.76364 4.49329 6.84824 4.91876C6.93283 5.34423 7.14171 5.73506 7.44845 6.0418C7.75519 6.34854 8.14602 6.55742 8.57149 6.64201C8.99696 6.72661 9.43796 6.68311 9.83871 6.51704C10.2395 6.35096 10.5819 6.06976 10.8229 5.70901C11.0638 5.34826 11.1923 4.92416 11.1921 4.49036C11.1915 3.90913 10.9604 3.35187 10.5494 2.94087C10.1384 2.52987 9.58112 2.29871 8.99989 2.29811Z" fill="#222222"/>
</svg>
