<svg width="28" height="28" viewBox="0 0 28 28" fill="none" xmlns="http://www.w3.org/2000/svg">
<g clip-path="url(#clip0_327_806)">
<path d="M14.0002 4.66663C14.9977 4.66663 16.0208 4.69229 17.0125 4.73429L18.1838 4.79029L19.305 4.85679L20.355 4.92796L21.314 5.00263C22.3547 5.08228 23.334 5.5264 24.0796 6.25684C24.8252 6.98728 25.2893 7.95726 25.3903 8.99613L25.437 9.49196L25.5245 10.5536C25.6062 11.6538 25.6668 12.8531 25.6668 14C25.6668 15.1468 25.6062 16.3461 25.5245 17.4463L25.437 18.508C25.4218 18.6783 25.4067 18.8428 25.3903 19.0038C25.2893 20.0428 24.825 21.013 24.0792 21.7434C23.3333 22.4739 22.3538 22.9179 21.3128 22.9973L20.3562 23.0708L19.3062 23.1431L18.1838 23.2096L17.0125 23.2656C16.009 23.3092 15.0046 23.3318 14.0002 23.3333C12.9957 23.3318 11.9914 23.3092 10.9878 23.2656L9.8165 23.2096L8.69533 23.1431L7.64533 23.0708L6.68633 22.9973C5.6456 22.9176 4.66631 22.4735 3.92071 21.7431C3.17512 21.0126 2.711 20.0427 2.61 19.0038L2.56333 18.508L2.47583 17.4463C2.38662 16.2996 2.33915 15.1501 2.3335 14C2.3335 12.8531 2.39416 11.6538 2.47583 10.5536L2.56333 9.49196C2.5785 9.32163 2.59366 9.15713 2.61 8.99613C2.71096 7.95744 3.17492 6.98761 3.92027 6.25719C4.66562 5.52678 5.64465 5.08255 6.68516 5.00263L7.643 4.92796L8.693 4.85679L9.81533 4.79029L10.9867 4.73429C11.9906 4.6907 12.9953 4.66814 14.0002 4.66663ZM14.0002 6.99996C13.0377 6.99996 12.0472 7.02563 11.0835 7.06529L9.9425 7.12013L8.847 7.18429L7.818 7.25429L6.87533 7.32779C6.37988 7.36295 5.91288 7.57238 5.5571 7.91897C5.20133 8.26557 4.97976 8.72693 4.93166 9.22129C4.79516 10.6318 4.66683 12.3876 4.66683 14C4.66683 15.6123 4.79516 17.3681 4.93166 18.7786C5.03083 19.796 5.83816 20.587 6.87533 20.6721L7.818 20.7445L8.847 20.8145L9.9425 20.8798L11.0835 20.9346C12.0472 20.9743 13.0377 21 14.0002 21C14.9627 21 15.9532 20.9743 16.9168 20.9346L18.0578 20.8798L19.1533 20.8156L20.1823 20.7456L21.125 20.6721C21.6204 20.637 22.0874 20.4275 22.4432 20.0809C22.799 19.7344 23.0206 19.273 23.0687 18.7786C23.2052 17.3681 23.3335 15.6123 23.3335 14C23.3335 12.3876 23.2052 10.6318 23.0687 9.22129C23.0206 8.72693 22.799 8.26557 22.4432 7.91897C22.0874 7.57238 21.6204 7.36295 21.125 7.32779L20.1823 7.25546L19.1533 7.18546L18.0578 7.12013L16.9168 7.06529C15.9452 7.02349 14.9727 7.0017 14.0002 6.99996ZM11.6668 11.1708C11.6668 11.0568 11.6945 10.9444 11.7478 10.8436C11.801 10.7428 11.878 10.6564 11.9722 10.5922C12.0664 10.5279 12.1748 10.4876 12.2881 10.4748C12.4015 10.462 12.5162 10.477 12.6223 10.5186L12.7168 10.5653L17.6168 13.3933C17.7144 13.4496 17.7969 13.5286 17.8575 13.6236C17.918 13.7187 17.9546 13.8269 17.9644 13.9391C17.9741 14.0513 17.9566 14.1643 17.9134 14.2683C17.8701 14.3723 17.8024 14.4644 17.716 14.5366L17.6168 14.6066L12.7168 17.4358C12.6181 17.493 12.5069 17.5251 12.3928 17.5295C12.2788 17.5339 12.1655 17.5103 12.0626 17.4609C11.9598 17.4114 11.8706 17.3375 11.8029 17.2457C11.7351 17.1539 11.6908 17.047 11.6738 16.9341L11.6668 16.8291V11.1708Z" fill="white"/>
</g>
<defs>
<clipPath id="clip0_327_806">
<rect width="28" height="28" fill="white"/>
</clipPath>
</defs>
</svg>
