<svg width="26" height="24" viewBox="0 0 26 24" fill="none" xmlns="http://www.w3.org/2000/svg">
<g clip-path="url(#clip0_134_437)">
<path d="M0 1.125C0 0.501562 0.482986 0 1.08333 0H3.13715C4.13021 0 5.01042 0.6 5.42118 1.5H23.9733C25.1604 1.5 26.0271 2.67188 25.7156 3.8625L23.8649 11.0016C23.4813 12.4734 22.1948 13.5 20.7278 13.5H7.70521L7.94896 14.8359C8.04826 15.3656 8.49514 15.75 9.01424 15.75H22.0278C22.6281 15.75 23.1111 16.2516 23.1111 16.875C23.1111 17.4984 22.6281 18 22.0278 18H9.01424C7.45243 18 6.11181 16.8469 5.82292 15.2578L3.49375 2.55469C3.46215 2.37656 3.31319 2.25 3.13715 2.25H1.08333C0.482986 2.25 0 1.74844 0 1.125ZM5.77778 21.75C5.77778 21.4545 5.83382 21.1619 5.94271 20.889C6.05159 20.616 6.21119 20.3679 6.41238 20.159C6.61357 19.9501 6.85242 19.7843 7.1153 19.6713C7.37817 19.5582 7.65991 19.5 7.94444 19.5C8.22898 19.5 8.51072 19.5582 8.77359 19.6713C9.03646 19.7843 9.27532 19.9501 9.47651 20.159C9.6777 20.3679 9.8373 20.616 9.94618 20.889C10.0551 21.1619 10.1111 21.4545 10.1111 21.75C10.1111 22.0455 10.0551 22.3381 9.94618 22.611C9.8373 22.884 9.6777 23.1321 9.47651 23.341C9.27532 23.5499 9.03646 23.7157 8.77359 23.8287C8.51072 23.9418 8.22898 24 7.94444 24C7.65991 24 7.37817 23.9418 7.1153 23.8287C6.85242 23.7157 6.61357 23.5499 6.41238 23.341C6.21119 23.1321 6.05159 22.884 5.94271 22.611C5.83382 22.3381 5.77778 22.0455 5.77778 21.75ZM20.9444 19.5C21.5191 19.5 22.0702 19.7371 22.4765 20.159C22.8828 20.581 23.1111 21.1533 23.1111 21.75C23.1111 22.3467 22.8828 22.919 22.4765 23.341C22.0702 23.7629 21.5191 24 20.9444 24C20.3698 24 19.8187 23.7629 19.4124 23.341C19.0061 22.919 18.7778 22.3467 18.7778 21.75C18.7778 21.1533 19.0061 20.581 19.4124 20.159C19.8187 19.7371 20.3698 19.5 20.9444 19.5ZM11.375 7.5C11.375 8.01562 11.7812 8.4375 12.2778 8.4375H14.2639V10.5C14.2639 11.0156 14.6701 11.4375 15.1667 11.4375C15.6632 11.4375 16.0694 11.0156 16.0694 10.5V8.4375H18.0556C18.5521 8.4375 18.9583 8.01562 18.9583 7.5C18.9583 6.98438 18.5521 6.5625 18.0556 6.5625H16.0694V4.5C16.0694 3.98438 15.6632 3.5625 15.1667 3.5625C14.6701 3.5625 14.2639 3.98438 14.2639 4.5V6.5625H12.2778C11.7812 6.5625 11.375 6.98438 11.375 7.5Z" fill="#222222"/>
</g>
<defs>
<clipPath id="clip0_134_437">
<rect width="26" height="24" fill="white"/>
</clipPath>
</defs>
</svg>
