<svg width="27" height="27" viewBox="0 0 27 27" fill="none" xmlns="http://www.w3.org/2000/svg">
<path d="M9.92254 13.5L18.6019 4.81951C18.7669 4.65451 18.8487 4.45651 18.8472 4.22551C18.8457 3.99451 18.7617 3.79613 18.5952 3.63038C18.4294 3.46463 18.231 3.38176 18 3.38176C17.769 3.38176 17.5707 3.46464 17.4049 3.63038L8.80879 12.222C8.62655 12.4035 8.49379 12.606 8.41054 12.8295C8.32654 13.053 8.28454 13.2765 8.28455 13.5C8.28455 13.7235 8.32655 13.947 8.41055 14.1705C8.49455 14.394 8.6273 14.5965 8.8088 14.778L17.4038 23.3775C17.5695 23.5433 17.769 23.625 18.0023 23.6228C18.2348 23.6205 18.4339 23.5365 18.5997 23.3708C18.7654 23.205 18.8487 23.0066 18.8494 22.7756C18.8502 22.5446 18.7669 22.3466 18.5997 22.1816L9.92254 13.5Z" fill="#222222"/>
</svg>
