<svg width="27" height="27" viewBox="0 0 27 27" fill="none" xmlns="http://www.w3.org/2000/svg">
<path d="M17.0775 13.5L8.39814 4.81951C8.23314 4.65451 8.15139 4.45651 8.15289 4.22551C8.15439 3.99451 8.23839 3.79613 8.40489 3.63038C8.57064 3.46463 8.76902 3.38176 9.00002 3.38176C9.23102 3.38176 9.42939 3.46464 9.59514 3.63038L18.1913 12.222C18.3735 12.4035 18.5063 12.606 18.5895 12.8295C18.6735 13.053 18.7155 13.2765 18.7155 13.5C18.7155 13.7235 18.6735 13.947 18.5895 14.1705C18.5055 14.394 18.3728 14.5965 18.1913 14.778L9.59626 23.3775C9.43051 23.5433 9.23101 23.625 8.99776 23.6228C8.76526 23.6205 8.56614 23.5365 8.40039 23.3708C8.23464 23.205 8.15139 23.0066 8.15064 22.7756C8.14989 22.5446 8.23314 22.3466 8.40039 22.1816L17.0775 13.5Z" fill="#222222"/>
</svg>
