<svg width="100" height="100" viewBox="0 0 100 100" fill="none" xmlns="http://www.w3.org/2000/svg">
<path d="M44.105 55.641L47.703 53.562L43.037 49.637L44.105 55.641Z" fill="#F6D776"/>
<path d="M88.558 49.9601C88.558 49.0751 88.123 48.2971 87.461 47.8091L87.475 47.7851L78.151 42.4021L83.518 33.1061L83.5 33.0951C83.6695 32.7119 83.7464 32.2943 83.7243 31.8759C83.7022 31.4575 83.5819 31.0502 83.373 30.6871C83.1626 30.3242 82.8695 30.0162 82.5177 29.7878C82.1658 29.5595 81.7651 29.4174 81.348 29.3731V29.3471H70.58V18.6101H70.558C70.5132 18.1935 70.3709 17.7934 70.1426 17.4421C69.9143 17.0908 69.6064 16.7982 69.244 16.5881C68.8803 16.3785 68.4722 16.258 68.053 16.2363C67.6338 16.2145 67.2154 16.2923 66.832 16.4631L66.819 16.4401L57.338 21.9141L52.088 12.8201L52.069 12.8311C51.8218 12.4928 51.4985 12.2175 51.1251 12.0274C50.7518 11.8374 50.3389 11.7379 49.92 11.7371C49.035 11.7371 48.256 12.1721 47.769 12.8341L47.745 12.8201L42.408 22.0641L33.218 16.7581L33.207 16.7771C32.8239 16.6075 32.4062 16.5307 31.9878 16.5528C31.5694 16.5748 31.1622 16.6952 30.799 16.9041C30.4359 17.1143 30.1276 17.4073 29.8991 17.7592C29.6706 18.111 29.5284 18.5119 29.484 18.9291H29.457V29.6031H18.845V29.6241C18.4284 29.6689 18.0283 29.8112 17.677 30.0395C17.3257 30.2678 17.0331 30.5756 16.823 30.9381C16.614 31.3016 16.4937 31.7093 16.4718 32.128C16.4499 32.5467 16.5271 32.9647 16.697 33.3481L16.674 33.3621L21.92 42.4491L12.526 47.8731L12.537 47.8921C12.1987 48.1392 11.9234 48.4626 11.7333 48.8359C11.5433 49.2093 11.4438 49.6221 11.443 50.0411C11.443 50.9261 11.878 51.7051 12.54 52.1921L12.526 52.2161L21.85 57.5991L16.483 66.8951L16.501 66.9051C16.3315 67.2882 16.2546 67.7059 16.2767 68.1242C16.2988 68.5426 16.4191 68.9499 16.628 69.3131C16.8384 69.6759 17.1315 69.984 17.4833 70.2123C17.8352 70.4406 18.2359 70.5827 18.653 70.6271V70.6541H29.42V81.3901H29.442C29.534 82.2061 29.991 82.9701 30.756 83.4121C31.1198 83.6214 31.5279 83.7418 31.947 83.7635C32.3662 83.7852 32.7845 83.7076 33.168 83.5371L33.181 83.5601L42.662 78.0861L47.912 87.1801L47.931 87.1691C48.1782 87.5073 48.5015 87.7826 48.8748 87.9727C49.2482 88.1628 49.6611 88.2622 50.08 88.2631C50.965 88.2631 51.744 87.8281 52.231 87.1671L52.254 87.1801L57.591 77.9361L66.782 83.2421L66.793 83.2231C67.1761 83.3926 67.5938 83.4694 68.0122 83.4474C68.4305 83.4253 68.8378 83.3049 69.201 83.0961C69.5642 82.8859 69.8726 82.593 70.1011 82.2411C70.3296 81.8892 70.4718 81.4883 70.516 81.0711H70.543V70.3981H81.156V70.3771C81.5725 70.3322 81.9727 70.1899 82.324 69.9616C82.6753 69.7333 82.9679 69.4255 83.178 69.0631C83.387 68.6995 83.5073 68.2919 83.5292 67.8731C83.5511 67.4544 83.4739 67.0364 83.304 66.6531L83.327 66.6401L78.081 57.5531L87.475 52.1291L87.464 52.1101C87.8023 51.8627 88.0776 51.5392 88.2676 51.1657C88.4577 50.7921 88.5572 50.3791 88.558 49.9601ZM37.537 65.1971C35.307 66.4851 33.285 66.6611 31.566 66.1991L31.807 63.5021C33.109 63.8791 34.792 63.8771 36.382 62.9581C37.749 62.1691 38.04 61.1931 37.651 60.5201C36.492 58.5141 30.659 63.7501 28.152 59.4091C27.044 57.4891 27.785 54.9381 30.502 53.3701C32.335 52.3111 34.177 51.9871 35.928 52.3821L35.619 55.0051C34.186 54.6811 32.711 55.0011 31.535 55.6791C30.497 56.2791 30.168 57.0681 30.568 57.7611C31.617 59.5771 37.533 54.5251 40.019 58.8301C41.238 60.9391 40.635 63.4101 37.537 65.1971ZM51.48 56.8711L49.626 55.3361L44.679 58.1921L45.08 60.5661L42.295 62.1731L40.08 48.0701L43.159 46.2931L54.265 55.2641L51.48 56.8711ZM55.233 54.7051L48.572 43.1671L51.046 41.7381L56.459 51.1131L61.337 48.2971L62.586 50.4601L55.233 54.7051ZM64.245 49.5021L57.584 37.9651L65.748 33.2501L66.996 35.4121L61.289 38.7081L62.687 41.1301L68.273 37.9041L69.521 40.0661L63.935 43.2911L65.453 45.9211L71.161 42.6251L72.41 44.7871L64.245 49.5021Z" fill="#F6D776"/>
</svg>
