<svg width="28" height="28" viewBox="0 0 28 28" fill="none" xmlns="http://www.w3.org/2000/svg">
<path d="M14 17.71L23.002 8.70919C23.1731 8.53808 23.3784 8.4533 23.618 8.45486C23.8575 8.45641 24.0633 8.54353 24.2351 8.71619C24.407 8.88808 24.493 9.0938 24.493 9.33336C24.493 9.57291 24.407 9.77864 24.2351 9.95052L15.3253 18.865C15.1371 19.054 14.9271 19.1917 14.6953 19.278C14.4635 19.3651 14.2318 19.4087 14 19.4087C13.7682 19.4087 13.5364 19.3651 13.3046 19.278C13.0729 19.1909 12.8629 19.0532 12.6746 18.865L3.75664 9.95169C3.58475 9.7798 3.49997 9.57291 3.50231 9.33102C3.50464 9.08991 3.59175 8.88341 3.76364 8.71152C3.93553 8.53964 4.14125 8.4533 4.38081 8.45253C4.62036 8.45175 4.82569 8.53808 4.99681 8.71152L14 17.71Z" fill="#222222"/>
</svg>
