<svg width="20" height="20" viewBox="0 0 20 20" fill="none" xmlns="http://www.w3.org/2000/svg">
<path d="M12.65 10L6.22084 3.57005C6.09861 3.44782 6.03806 3.30116 6.03917 3.13005C6.04028 2.95893 6.1025 2.81199 6.22584 2.68921C6.34861 2.56643 6.49556 2.50505 6.66667 2.50505C6.83778 2.50505 6.98472 2.56643 7.1075 2.68921L13.475 9.05338C13.61 9.18782 13.7083 9.33782 13.77 9.50338C13.8322 9.66893 13.8633 9.83449 13.8633 10C13.8633 10.1656 13.8322 10.3312 13.77 10.4967C13.7078 10.6623 13.6094 10.8123 13.475 10.9467L7.10833 17.3167C6.98556 17.4395 6.83778 17.5 6.665 17.4984C6.49278 17.4967 6.34528 17.4345 6.2225 17.3117C6.09972 17.1889 6.03806 17.042 6.0375 16.8709C6.03695 16.6998 6.09861 16.5531 6.2225 16.4309L12.65 10Z" fill="#222222"/>
</svg>
