<svg width="40" height="40" viewBox="0 0 40 40" fill="none" xmlns="http://www.w3.org/2000/svg">
<path d="M15 25.2039V13.7945C15.0002 13.6518 15.0408 13.5117 15.1175 13.389C15.1942 13.2663 15.3042 13.1655 15.4359 13.0972C15.5676 13.0288 15.7161 12.9954 15.8661 13.0005C16.016 13.0056 16.1617 13.0489 16.288 13.126L25.6148 18.8291C25.7329 18.9011 25.8301 19.0002 25.8974 19.1173C25.9647 19.2344 26 19.3657 26 19.4992C26 19.6327 25.9647 19.764 25.8974 19.8811C25.8301 19.9982 25.7329 20.0973 25.6148 20.1693L16.288 25.874C16.1617 25.9511 16.016 25.9944 15.8661 25.9995C15.7161 26.0046 15.5676 25.9712 15.4359 25.9028C15.3042 25.8345 15.1942 25.7337 15.1175 25.611C15.0408 25.4883 15.0002 25.3482 15 25.2055V25.2039Z" fill="#222222"/>
<path d="M2 19.5C2 9.83523 9.83523 2 19.5 2C29.1648 2 37 9.83523 37 19.5C37 29.1648 29.1648 37 19.5 37C9.83523 37 2 29.1648 2 19.5ZM19.5 4.38636C15.4916 4.38636 11.6474 5.97869 8.81305 8.81305C5.97869 11.6474 4.38636 15.4916 4.38636 19.5C4.38636 23.5084 5.97869 27.3526 8.81305 30.187C11.6474 33.0213 15.4916 34.6136 19.5 34.6136C23.5084 34.6136 27.3526 33.0213 30.187 30.187C33.0213 27.3526 34.6136 23.5084 34.6136 19.5C34.6136 15.4916 33.0213 11.6474 30.187 8.81305C27.3526 5.97869 23.5084 4.38636 19.5 4.38636Z" fill="#222222"/>
</svg>
