<svg width="40" height="40" viewBox="0 0 40 40" fill="none" xmlns="http://www.w3.org/2000/svg">
<path d="M15.8333 25.9733V14.0266C15.8336 13.8772 15.874 13.7305 15.9504 13.6021C16.0269 13.4736 16.1364 13.368 16.2676 13.2965C16.3989 13.2249 16.5469 13.1899 16.6963 13.1952C16.8457 13.2005 16.9909 13.2459 17.1167 13.3266L26.41 19.2983C26.5277 19.3737 26.6245 19.4775 26.6916 19.6001C26.7586 19.7227 26.7938 19.8602 26.7938 20C26.7938 20.1397 26.7586 20.2772 26.6916 20.3999C26.6245 20.5225 26.5277 20.6263 26.41 20.7016L17.1167 26.675C16.9909 26.7557 16.8457 26.8011 16.6963 26.8064C16.5469 26.8117 16.3989 26.7767 16.2676 26.7052C16.1364 26.6336 16.0269 26.528 15.9504 26.3996C15.874 26.2711 15.8336 26.1245 15.8333 25.975V25.9733Z" fill="#222222"/>
<path d="M1.66667 20C1.66667 9.87496 9.87501 1.66663 20 1.66663C30.125 1.66663 38.3333 9.87496 38.3333 20C38.3333 30.125 30.125 38.3333 20 38.3333C9.87501 38.3333 1.66667 30.125 1.66667 20ZM20 4.16663C15.8007 4.16663 11.7735 5.83478 8.80415 8.8041C5.83482 11.7734 4.16667 15.8007 4.16667 20C4.16667 24.1992 5.83482 28.2265 8.80415 31.1958C11.7735 34.1651 15.8007 35.8333 20 35.8333C24.1993 35.8333 28.2265 34.1651 31.1959 31.1958C34.1652 28.2265 35.8333 24.1992 35.8333 20C35.8333 15.8007 34.1652 11.7734 31.1959 8.8041C28.2265 5.83478 24.1993 4.16663 20 4.16663Z" fill="#222222"/>
</svg>
