<svg width="26" height="26" viewBox="0 0 26 26" fill="none" xmlns="http://www.w3.org/2000/svg">
<path d="M13 22.75C14.2804 22.75 15.5482 22.4978 16.7312 22.0078C17.9141 21.5178 18.9889 20.7997 19.8943 19.8943C20.7997 18.9889 21.5178 17.9141 22.0078 16.7312C22.4978 15.5482 22.75 14.2804 22.75 13C22.75 11.7196 22.4978 10.4518 22.0078 9.26884C21.5178 8.08591 20.7997 7.01108 19.8943 6.10571C18.9889 5.20034 17.9141 4.48216 16.7312 3.99217C15.5482 3.50219 14.2804 3.25 13 3.25C10.4141 3.25 7.93419 4.27723 6.10571 6.10571C4.27723 7.93419 3.25 10.4141 3.25 13C3.25 15.5859 4.27723 18.0658 6.10571 19.8943C7.93419 21.7228 10.4141 22.75 13 22.75ZM13 24.375C9.98316 24.375 7.08989 23.1766 4.95666 21.0433C2.82343 18.9101 1.625 16.0168 1.625 13C1.625 9.98316 2.82343 7.08989 4.95666 4.95666C7.08989 2.82343 9.98316 1.625 13 1.625C16.0168 1.625 18.9101 2.82343 21.0433 4.95666C23.1766 7.08989 24.375 9.98316 24.375 13C24.375 16.0168 23.1766 18.9101 21.0433 21.0433C18.9101 23.1766 16.0168 24.375 13 24.375Z" fill="black"/>
<path d="M18.9248 9.1748C19.0774 9.02223 19.2843 8.93652 19.5001 8.93652C19.7158 8.93652 19.9227 9.02223 20.0753 9.1748C20.2279 9.32737 20.3136 9.53429 20.3136 9.75005C20.3136 9.96581 20.2279 10.1727 20.0753 10.3253L12.7628 17.6378C12.6873 17.7135 12.5977 17.7735 12.499 17.8145C12.4002 17.8554 12.2944 17.8765 12.1876 17.8765C12.0807 17.8765 11.9749 17.8554 11.8761 17.8145C11.7774 17.7735 11.6878 17.7135 11.6123 17.6378L7.5498 13.5753C7.47426 13.4998 7.41433 13.4101 7.37345 13.3114C7.33257 13.2127 7.31152 13.1069 7.31152 13.0001C7.31152 12.8932 7.33257 12.7874 7.37345 12.6887C7.41433 12.59 7.47426 12.5003 7.5498 12.4248C7.62534 12.3493 7.71503 12.2893 7.81373 12.2484C7.91243 12.2076 8.01822 12.1865 8.12505 12.1865C8.23188 12.1865 8.33767 12.2076 8.43637 12.2484C8.53508 12.2893 8.62476 12.3493 8.7003 12.4248L12.1876 15.9137L18.9248 9.1748Z" fill="black"/>
</svg>
