<svg width="32" height="32" viewBox="0 0 32 32" fill="none" xmlns="http://www.w3.org/2000/svg">
<circle cx="16" cy="16" r="16" fill="white"/>
<path d="M16 0C7.152 0 0 7.152 0 16C0 24.848 7.152 32 16 32C24.848 32 32 24.848 32 16C32 7.152 24.848 0 16 0ZM20.96 8.112C21.184 8.112 21.408 8.192 21.6 8.368L23.632 10.4C24 10.752 24 11.312 23.632 11.648L22.032 13.248L18.752 9.968L20.352 8.368C20.512 8.192 20.736 8.112 20.96 8.112ZM17.808 10.896L21.104 14.192L11.408 23.888H8.112V20.592L17.808 10.896Z" fill="#F6D776"/>
</svg>
