<svg width="20" height="20" viewBox="0 0 20 20" fill="none" xmlns="http://www.w3.org/2000/svg">
<path d="M7.34999 10.0001L13.7792 16.4301C13.9014 16.5523 13.9619 16.699 13.9608 16.8701C13.9597 17.0412 13.8975 17.1881 13.7742 17.3109C13.6514 17.4337 13.5044 17.4951 13.3333 17.4951C13.1622 17.4951 13.0153 17.4337 12.8925 17.3109L6.52499 10.9467C6.38999 10.8123 6.29166 10.6623 6.22999 10.4967C6.16777 10.3312 6.13666 10.1656 6.13666 10.0001C6.13666 9.83452 6.16777 9.66896 6.22999 9.50341C6.29221 9.33785 6.39055 9.18785 6.52499 9.05341L12.8917 2.68341C13.0144 2.56063 13.1622 2.50008 13.335 2.50174C13.5072 2.50341 13.6547 2.56563 13.7775 2.68841C13.9003 2.81119 13.9619 2.95813 13.9625 3.12924C13.963 3.30035 13.9014 3.44702 13.7775 3.56924L7.34999 10.0001Z" fill="#222222"/>
</svg>
