<svg width="88" height="88" viewBox="0 0 88 88" fill="none" xmlns="http://www.w3.org/2000/svg">
<circle cx="44" cy="44" r="44" fill="white"/>
<path d="M43.3841 51C45.3468 51 47.0041 50.324 48.3561 48.972C49.7081 47.62 50.3841 45.9627 50.3841 44C50.3841 42.0373 49.7081 40.3807 48.3561 39.03C47.0041 37.6793 45.3468 37.0027 43.3841 37C41.4214 36.9973 39.7648 37.674 38.4141 39.03C37.0634 40.386 36.3868 42.0427 36.3841 44C36.3814 45.9573 37.0581 47.6147 38.4141 48.972C39.7701 50.3293 41.4268 51.0053 43.3841 51ZM43.3841 46C42.8174 46 42.3428 45.808 41.9601 45.424C41.5774 45.04 41.3854 44.5653 41.3841 44C41.3828 43.4347 41.5748 42.96 41.9601 42.576C42.3454 42.192 42.8201 42 43.3841 42C43.9481 42 44.4234 42.192 44.8101 42.576C45.1968 42.96 45.3881 43.4347 45.3841 44C45.3801 44.5653 45.1888 45.0407 44.8101 45.426C44.4314 45.8113 43.9561 46.0027 43.3841 46ZM43.3841 62C40.8948 62 38.5548 61.528 36.3641 60.584C34.1734 59.64 32.2688 58.3573 30.6501 56.736C29.0314 55.1147 27.7481 53.2107 26.8001 51.024C25.8521 48.8373 25.3794 46.498 25.3821 44.006C25.3848 41.514 25.8574 39.174 26.8001 36.986C27.7428 34.798 29.0254 32.892 30.6481 31.268C32.2708 29.644 34.1754 28.3607 36.3621 27.418C38.5488 26.4753 40.8894 26.0027 43.3841 26C47.0268 26 50.3501 26.9953 53.3541 28.986C56.3581 30.9767 58.5714 33.648 59.9941 37H57.7241C56.4001 34.244 54.4468 32.0547 51.8641 30.432C49.2841 28.8107 46.4581 28 43.3861 28C38.9194 28 35.1361 29.55 32.0361 32.65C28.9361 35.75 27.3854 39.5333 27.3841 44C27.3828 48.4667 28.9328 52.25 32.0341 55.35C35.1354 58.45 38.9188 60 43.3841 60C45.9668 60 48.3848 59.3967 50.6381 58.19C52.8914 56.9847 54.8068 55.3447 56.3841 53.27V56.308C54.6694 58.0867 52.6928 59.48 50.4541 60.488C48.2154 61.496 45.8588 62 43.3841 62ZM60.3841 56V41H62.3841V56H60.3841ZM61.3841 61.308C61.0361 61.308 60.7441 61.19 60.5081 60.954C60.2721 60.718 60.1541 60.426 60.1541 60.078C60.1541 59.73 60.2721 59.4373 60.5081 59.2C60.7441 58.964 61.0361 58.846 61.3841 58.846C61.7321 58.846 62.0248 58.964 62.2621 59.2C62.4994 59.436 62.6174 59.7287 62.6161 60.078C62.6148 60.4273 62.4968 60.7193 62.2621 60.954C62.0274 61.1887 61.7348 61.3067 61.3841 61.308Z" fill="#222222"/>
</svg>
