<svg width="28" height="28" viewBox="0 0 28 28" fill="none" xmlns="http://www.w3.org/2000/svg">
<path d="M9.09992 2.33337H18.8999C22.6333 2.33337 25.6666 5.36671 25.6666 9.10004V18.9C25.6666 20.6947 24.9537 22.4158 23.6847 23.6848C22.4157 24.9538 20.6946 25.6667 18.8999 25.6667H9.09992C5.36659 25.6667 2.33325 22.6334 2.33325 18.9V9.10004C2.33325 7.30541 3.04617 5.58428 4.31516 4.31528C5.58416 3.04629 7.30529 2.33337 9.09992 2.33337ZM8.86658 4.66671C7.75268 4.66671 6.68439 5.10921 5.89674 5.89686C5.10908 6.68451 4.66659 7.7528 4.66659 8.86671V19.1334C4.66659 21.455 6.54492 23.3334 8.86658 23.3334H19.1333C20.2472 23.3334 21.3154 22.8909 22.1031 22.1032C22.8908 21.3156 23.3333 20.2473 23.3333 19.1334V8.86671C23.3333 6.54504 21.4549 4.66671 19.1333 4.66671H8.86658ZM20.1249 6.41671C20.5117 6.41671 20.8826 6.57035 21.1561 6.84384C21.4296 7.11733 21.5833 7.48827 21.5833 7.87504C21.5833 8.26181 21.4296 8.63275 21.1561 8.90624C20.8826 9.17973 20.5117 9.33337 20.1249 9.33337C19.7381 9.33337 19.3672 9.17973 19.0937 8.90624C18.8202 8.63275 18.6666 8.26181 18.6666 7.87504C18.6666 7.48827 18.8202 7.11733 19.0937 6.84384C19.3672 6.57035 19.7381 6.41671 20.1249 6.41671ZM13.9999 8.16671C15.547 8.16671 17.0307 8.78129 18.1247 9.87525C19.2187 10.9692 19.8333 12.4529 19.8333 14C19.8333 15.5471 19.2187 17.0309 18.1247 18.1248C17.0307 19.2188 15.547 19.8334 13.9999 19.8334C12.4528 19.8334 10.9691 19.2188 9.87513 18.1248C8.78117 17.0309 8.16658 15.5471 8.16658 14C8.16658 12.4529 8.78117 10.9692 9.87513 9.87525C10.9691 8.78129 12.4528 8.16671 13.9999 8.16671ZM13.9999 10.5C13.0717 10.5 12.1814 10.8688 11.525 11.5252C10.8687 12.1815 10.4999 13.0718 10.4999 14C10.4999 14.9283 10.8687 15.8185 11.525 16.4749C12.1814 17.1313 13.0717 17.5 13.9999 17.5C14.9282 17.5 15.8184 17.1313 16.4748 16.4749C17.1312 15.8185 17.4999 14.9283 17.4999 14C17.4999 13.0718 17.1312 12.1815 16.4748 11.5252C15.8184 10.8688 14.9282 10.5 13.9999 10.5Z" fill="white"/>
</svg>
