<svg width="28" height="28" viewBox="0 0 28 28" fill="none" xmlns="http://www.w3.org/2000/svg">
<path d="M9.09998 2.33325H18.9C22.6333 2.33325 25.6666 5.36659 25.6666 9.09992V18.8999C25.6666 20.6946 24.9537 22.4157 23.6847 23.6847C22.4157 24.9537 20.6946 25.6666 18.9 25.6666H9.09998C5.36665 25.6666 2.33331 22.6333 2.33331 18.8999V9.09992C2.33331 7.30529 3.04623 5.58416 4.31522 4.31516C5.58422 3.04617 7.30535 2.33325 9.09998 2.33325ZM8.86665 4.66659C7.75274 4.66659 6.68445 5.10908 5.8968 5.89674C5.10915 6.68439 4.66665 7.75268 4.66665 8.86659V19.1333C4.66665 21.4549 6.54498 23.3333 8.86665 23.3333H19.1333C20.2472 23.3333 21.3155 22.8908 22.1032 22.1031C22.8908 21.3155 23.3333 20.2472 23.3333 19.1333V8.86659C23.3333 6.54492 21.455 4.66659 19.1333 4.66659H8.86665ZM20.125 6.41659C20.5118 6.41659 20.8827 6.57023 21.1562 6.84372C21.4297 7.11721 21.5833 7.48814 21.5833 7.87492C21.5833 8.26169 21.4297 8.63263 21.1562 8.90612C20.8827 9.17961 20.5118 9.33325 20.125 9.33325C19.7382 9.33325 19.3673 9.17961 19.0938 8.90612C18.8203 8.63263 18.6666 8.26169 18.6666 7.87492C18.6666 7.48814 18.8203 7.11721 19.0938 6.84372C19.3673 6.57023 19.7382 6.41659 20.125 6.41659ZM14 8.16659C15.5471 8.16659 17.0308 8.78117 18.1248 9.87513C19.2187 10.9691 19.8333 12.4528 19.8333 13.9999C19.8333 15.547 19.2187 17.0307 18.1248 18.1247C17.0308 19.2187 15.5471 19.8333 14 19.8333C12.4529 19.8333 10.9692 19.2187 9.87519 18.1247C8.78123 17.0307 8.16665 15.547 8.16665 13.9999C8.16665 12.4528 8.78123 10.9691 9.87519 9.87513C10.9692 8.78117 12.4529 8.16659 14 8.16659ZM14 10.4999C13.0717 10.4999 12.1815 10.8687 11.5251 11.525C10.8687 12.1814 10.5 13.0717 10.5 13.9999C10.5 14.9282 10.8687 15.8184 11.5251 16.4748C12.1815 17.1312 13.0717 17.4999 14 17.4999C14.9282 17.4999 15.8185 17.1312 16.4749 16.4748C17.1312 15.8184 17.5 14.9282 17.5 13.9999C17.5 13.0717 17.1312 12.1814 16.4749 11.525C15.8185 10.8687 14.9282 10.4999 14 10.4999Z" fill="#222222"/>
</svg>
