<svg width="88" height="88" viewBox="0 0 88 88" fill="none" xmlns="http://www.w3.org/2000/svg">
<circle cx="44" cy="44" r="44" fill="white"/>
<path d="M62 33.232V54.77C62 55.69 61.692 56.4587 61.076 57.076C60.46 57.6933 59.6913 58.0013 58.77 58H29.23C28.31 58 27.542 57.692 26.926 57.076C26.31 56.46 26.0013 55.6907 26 54.768V33.232C26 32.3107 26.3087 31.542 26.926 30.926C27.5433 30.31 28.3113 30.0013 29.23 30H58.77C59.69 30 60.458 30.3087 61.074 30.926C61.69 31.5433 61.9987 32.312 62 33.232ZM28 37.616H60V33.232C60 32.924 59.872 32.6413 59.616 32.384C59.36 32.1267 59.078 31.9987 58.77 32H29.23C28.9233 32 28.6413 32.128 28.384 32.384C28.1267 32.64 27.9987 32.9227 28 33.232V37.616ZM28 42.384V54.77C28 55.0767 28.128 55.3587 28.384 55.616C28.64 55.8733 28.922 56.0013 29.23 56H58.77C59.0767 56 59.3587 55.872 59.616 55.616C59.8733 55.36 60.0013 55.078 60 54.77V42.384H28Z" fill="#222222"/>
</svg>
