<svg width="88" height="88" viewBox="0 0 88 88" fill="none" xmlns="http://www.w3.org/2000/svg">
<circle cx="44" cy="44" r="44" fill="white"/>
<path d="M54 54C54.8333 54 55.542 53.7087 56.126 53.126C56.71 52.5433 57.0013 51.8347 57 51C56.9987 50.1653 56.7073 49.4573 56.126 48.876C55.5447 48.2947 54.836 48.0027 54 48C53.164 47.9973 52.456 48.2893 51.876 48.876C51.296 49.4627 51.004 50.1707 51 51C50.996 51.8293 51.288 52.538 51.876 53.126C52.464 53.714 53.172 54.0053 54 54ZM54 60C55.0587 60 56.0153 59.7647 56.87 59.294C57.7233 58.8233 58.43 58.188 58.99 57.388C58.23 56.9293 57.4333 56.5833 56.6 56.35C55.7667 56.1167 54.9 56 54 56C53.1 56 52.2333 56.1167 51.4 56.35C50.5667 56.5833 49.7707 56.93 49.012 57.39C49.5707 58.19 50.2773 58.8247 51.132 59.294C51.984 59.7647 52.94 60 54 60ZM44 61.924C39.9813 60.7307 36.6433 58.2967 33.986 54.622C31.3287 50.9473 30 46.8067 30 42.2V31.384L44 26.154L58 31.384V42.696C57.7 42.584 57.3707 42.4833 57.012 42.394L56 42.15V32.762L44 28.3L32 32.76V42.2C32 44.1773 32.292 46.0707 32.876 47.88C33.4587 49.6907 34.2533 51.356 35.26 52.876C36.2667 54.396 37.4567 55.7227 38.83 56.856C40.2033 57.9893 41.6693 58.8553 43.228 59.454L43.342 59.414C43.5033 59.814 43.7047 60.2033 43.946 60.582C44.186 60.958 44.4593 61.3113 44.766 61.642C44.63 61.694 44.502 61.7407 44.382 61.782L44 61.924ZM54 62C51.772 62 49.882 61.224 48.33 59.672C46.7767 58.1173 46 56.2267 46 54C46 51.7733 46.7767 49.8833 48.33 48.33C49.8833 46.7767 51.7733 46 54 46C56.2267 46 58.1173 46.7767 59.672 48.33C61.2267 49.8833 62.0027 51.7733 62 54C61.9973 56.2267 61.2213 58.1173 59.672 59.672C58.1227 61.2267 56.232 62.0027 54 62Z" fill="#222222"/>
</svg>
