<svg width="88" height="88" viewBox="0 0 88 88" fill="none" xmlns="http://www.w3.org/2000/svg">
<circle cx="44" cy="44" r="44" fill="white"/>
<path d="M31.376 58.232C29.92 58.232 28.686 57.7233 27.674 56.706C26.6607 55.6887 26.154 54.4533 26.154 53H23.384V33.232C23.384 32.3107 23.6927 31.542 24.31 30.926C24.9274 30.31 25.696 30.0013 26.616 30H53.076V37.232H57.692L64.616 46.538V53H61.384C61.384 54.4533 60.8747 55.6887 59.856 56.706C58.8374 57.7233 57.6 58.2313 56.144 58.23C54.688 58.2287 53.4547 57.7207 52.444 56.706C51.4334 55.6913 50.9267 54.456 50.924 53H36.614C36.614 54.4613 36.1047 55.6987 35.086 56.712C34.0674 57.7253 32.83 58.232 31.374 58.232M31.382 56.232C32.282 56.232 33.0454 55.9187 33.672 55.292C34.2987 54.6653 34.612 53.9013 34.612 53C34.612 52.0987 34.2987 51.3353 33.672 50.71C33.0454 50.0847 32.282 49.7713 31.382 49.77C30.482 49.7687 29.7187 50.082 29.092 50.71C28.4654 51.338 28.152 52.1013 28.152 53C28.152 53.8987 28.4654 54.662 29.092 55.29C29.7187 55.918 30.482 56.2333 31.382 56.232ZM25.382 51H26.676C26.96 50.1173 27.5394 49.3587 28.414 48.724C29.2887 48.0893 30.278 47.7707 31.382 47.768C32.4354 47.768 33.4127 48.08 34.314 48.704C35.214 49.3267 35.806 50.092 36.09 51H51.076V32H26.614C26.306 32 26.024 32.128 25.768 32.384C25.5107 32.64 25.382 32.922 25.382 33.23V51ZM56.152 56.232C57.052 56.232 57.8154 55.9187 58.442 55.292C59.0687 54.664 59.382 53.9 59.382 53C59.382 52.1 59.0687 51.3367 58.442 50.71C57.8154 50.0833 57.052 49.77 56.152 49.77C55.252 49.77 54.4887 50.0833 53.862 50.71C53.2354 51.3367 52.922 52.1 52.922 53C52.922 53.9 53.2354 54.6633 53.862 55.29C54.4887 55.9167 55.252 56.232 56.152 56.232ZM53.076 47H62.5L56.616 39.232H53.076V47Z" fill="#222222"/>
</svg>
