<svg width="28" height="28" viewBox="0 0 28 28" fill="none" xmlns="http://www.w3.org/2000/svg">
<g clip-path="url(#clip0_299_311)">
<path d="M13.9999 4.66669C14.9974 4.66669 16.0206 4.69235 17.0123 4.73435L18.1836 4.79035L19.3048 4.85685L20.3548 4.92802L21.3137 5.00269C22.3545 5.08234 23.3338 5.52646 24.0794 6.2569C24.825 6.98734 25.2891 7.95732 25.3901 8.99619L25.4368 9.49202L25.5243 10.5537C25.6059 11.6539 25.6666 12.8532 25.6666 14C25.6666 15.1469 25.6059 16.3462 25.5243 17.4464L25.4368 18.508C25.4216 18.6784 25.4064 18.8429 25.3901 19.0039C25.289 20.0429 24.8248 21.013 24.0789 21.7435C23.3331 22.474 22.3535 22.918 21.3126 22.9974L20.3559 23.0709L19.3059 23.1432L18.1836 23.2097L17.0123 23.2657C16.0087 23.3093 15.0044 23.3319 13.9999 23.3334C12.9954 23.3319 11.9911 23.3093 10.9876 23.2657L9.81625 23.2097L8.69509 23.1432L7.64508 23.0709L6.68609 22.9974C5.64536 22.9177 4.66606 22.4736 3.92047 21.7431C3.17488 21.0127 2.71076 20.0427 2.60975 19.0039L2.56309 18.508L2.47559 17.4464C2.38638 16.2997 2.3389 15.1501 2.33325 14C2.33325 12.8532 2.39392 11.6539 2.47559 10.5537L2.56309 9.49202C2.57825 9.32169 2.59342 9.15719 2.60975 8.99619C2.71072 7.9575 3.17467 6.98767 3.92003 6.25725C4.66538 5.52684 5.6444 5.08261 6.68492 5.00269L7.64275 4.92802L8.69275 4.85685L9.81508 4.79035L10.9864 4.73435C11.9903 4.69076 12.9951 4.6682 13.9999 4.66669ZM13.9999 7.00002C13.0374 7.00002 12.0469 7.02569 11.0833 7.06535L9.94225 7.12019L8.84675 7.18435L7.81775 7.25435L6.87509 7.32785C6.37964 7.36301 5.91264 7.57244 5.55686 7.91903C5.20108 8.26563 4.97951 8.72699 4.93142 9.22135C4.79492 10.6319 4.66659 12.3877 4.66659 14C4.66659 15.6124 4.79492 17.3682 4.93142 18.7787C5.03059 19.796 5.83792 20.587 6.87509 20.6722L7.81775 20.7445L8.84675 20.8145L9.94225 20.8799L11.0833 20.9347C12.0469 20.9744 13.0374 21 13.9999 21C14.9624 21 15.9529 20.9744 16.9166 20.9347L18.0576 20.8799L19.1531 20.8157L20.1821 20.7457L21.1248 20.6722C21.6202 20.637 22.0872 20.4276 22.443 20.081C22.7988 19.7344 23.0203 19.273 23.0684 18.7787C23.2049 17.3682 23.3333 15.6124 23.3333 14C23.3333 12.3877 23.2049 10.6319 23.0684 9.22135C23.0203 8.72699 22.7988 8.26563 22.443 7.91903C22.0872 7.57244 21.6202 7.36301 21.1248 7.32785L20.1821 7.25552L19.1531 7.18552L18.0576 7.12019L16.9166 7.06535C15.9449 7.02355 14.9725 7.00177 13.9999 7.00002ZM11.6666 11.1709C11.6665 11.0568 11.6943 10.9445 11.7475 10.8437C11.8007 10.7428 11.8778 10.6565 11.972 10.5922C12.0661 10.5279 12.1746 10.4876 12.2879 10.4748C12.4012 10.462 12.5159 10.4771 12.6221 10.5187L12.7166 10.5654L17.6166 13.3934C17.7142 13.4497 17.7967 13.5287 17.8572 13.6237C17.9177 13.7187 17.9544 13.8269 17.9641 13.9392C17.9739 14.0514 17.9564 14.1643 17.9131 14.2684C17.8699 14.3724 17.8022 14.4644 17.7158 14.5367L17.6166 14.6067L12.7166 17.4359C12.6178 17.493 12.5066 17.5252 12.3926 17.5296C12.2786 17.5339 12.1652 17.5104 12.0624 17.4609C11.9596 17.4115 11.8704 17.3376 11.8026 17.2458C11.7348 17.154 11.6906 17.047 11.6736 16.9342L11.6666 16.8292V11.1709Z" fill="white"/>
</g>
<defs>
<clipPath id="clip0_299_311">
<rect width="28" height="28" fill="white"/>
</clipPath>
</defs>
</svg>
