<svg width="28" height="28" viewBox="0 0 28 28" fill="none" xmlns="http://www.w3.org/2000/svg">
<g clip-path="url(#clip0_538_514)">
<path d="M14 4.66675C14.9975 4.66675 16.0207 4.69241 17.0124 4.73441L18.1837 4.79041L19.3049 4.85691L20.3549 4.92808L21.3139 5.00275C22.3546 5.08241 23.3339 5.52652 24.0795 6.25696C24.8251 6.9874 25.2892 7.95738 25.3902 8.99625L25.4369 9.49208L25.5244 10.5537C25.606 11.6539 25.6667 12.8532 25.6667 14.0001C25.6667 15.1469 25.606 16.3462 25.5244 17.4464L25.4369 18.5081C25.4217 18.6784 25.4065 18.8429 25.3902 19.0039C25.2892 20.043 24.8249 21.0131 24.079 21.7436C23.3332 22.474 22.3536 22.918 21.3127 22.9974L20.356 23.0709L19.306 23.1432L18.1837 23.2097L17.0124 23.2657C16.0088 23.3094 15.0045 23.3319 14 23.3334C12.9956 23.3319 11.9912 23.3094 10.9877 23.2657L9.81637 23.2097L8.69521 23.1432L7.64521 23.0709L6.68621 22.9974C5.64548 22.9178 4.66618 22.4736 3.92059 21.7432C3.175 21.0128 2.71088 20.0428 2.60987 19.0039L2.56321 18.5081L2.47571 17.4464C2.3865 16.2997 2.33903 15.1502 2.33337 14.0001C2.33337 12.8532 2.39404 11.6539 2.47571 10.5537L2.56321 9.49208C2.57837 9.32175 2.59354 9.15725 2.60987 8.99625C2.71084 7.95756 3.17479 6.98773 3.92015 6.25732C4.6655 5.5269 5.64452 5.08267 6.68504 5.00275L7.64287 4.92808L8.69287 4.85691L9.81521 4.79041L10.9865 4.73441C11.9905 4.69082 12.9952 4.66826 14 4.66675ZM14 7.00008C13.0375 7.00008 12.047 7.02575 11.0834 7.06541L9.94237 7.12025L8.84687 7.18441L7.81787 7.25441L6.87521 7.32791C6.37976 7.36307 5.91276 7.5725 5.55698 7.9191C5.20121 8.26569 4.97963 8.72706 4.93154 9.22141C4.79504 10.6319 4.66671 12.3877 4.66671 14.0001C4.66671 15.6124 4.79504 17.3682 4.93154 18.7787C5.03071 19.7961 5.83804 20.5871 6.87521 20.6722L7.81787 20.7446L8.84687 20.8146L9.94237 20.8799L11.0834 20.9347C12.047 20.9744 13.0375 21.0001 14 21.0001C14.9625 21.0001 15.953 20.9744 16.9167 20.9347L18.0577 20.8799L19.1532 20.8157L20.1822 20.7457L21.1249 20.6722C21.6203 20.6371 22.0873 20.4277 22.4431 20.0811C22.7989 19.7345 23.0205 19.2731 23.0685 18.7787C23.205 17.3682 23.3334 15.6124 23.3334 14.0001C23.3334 12.3877 23.205 10.6319 23.0685 9.22141C23.0205 8.72706 22.7989 8.26569 22.4431 7.9191C22.0873 7.5725 21.6203 7.36307 21.1249 7.32791L20.1822 7.25558L19.1532 7.18558L18.0577 7.12025L16.9167 7.06541C15.945 7.02361 14.9726 7.00183 14 7.00008ZM11.6667 11.1709C11.6666 11.0569 11.6944 10.9446 11.7476 10.8437C11.8009 10.7429 11.8779 10.6566 11.9721 10.5923C12.0663 10.528 12.1747 10.4877 12.288 10.4749C12.4013 10.4621 12.516 10.4771 12.6222 10.5187L12.7167 10.5654L17.6167 13.3934C17.7143 13.4497 17.7968 13.5287 17.8573 13.6238C17.9178 13.7188 17.9545 13.827 17.9643 13.9392C17.974 14.0515 17.9565 14.1644 17.9132 14.2684C17.87 14.3724 17.8023 14.4645 17.7159 14.5367L17.6167 14.6067L12.7167 17.4359C12.618 17.4931 12.5067 17.5253 12.3927 17.5296C12.2787 17.534 12.1653 17.5104 12.0625 17.461C11.9597 17.4115 11.8705 17.3377 11.8027 17.2459C11.735 17.1541 11.6907 17.0471 11.6737 16.9342L11.6667 16.8292V11.1709Z" fill="#222222"/>
</g>
<defs>
<clipPath id="clip0_538_514">
<rect width="28" height="28" fill="white"/>
</clipPath>
</defs>
</svg>
