<svg width="40" height="40" viewBox="0 0 40 40" fill="none" xmlns="http://www.w3.org/2000/svg">
<g clip-path="url(#clip0_1077_54)">
<path d="M33.4363 31.1624C35.2314 29.0025 36.48 26.4421 37.0763 23.6976C37.6726 20.9532 37.5991 18.1055 36.8621 15.3954C36.1251 12.6854 34.7462 10.1927 32.8421 8.12824C30.9379 6.0638 28.5646 4.48833 25.9228 3.53512C23.2811 2.58191 20.4486 2.27899 17.665 2.65199C14.8813 3.02499 12.2285 4.06294 9.9309 5.67802C7.63327 7.29311 5.75844 9.43782 4.46499 11.9307C3.17155 14.4236 2.49755 17.1914 2.50001 19.9999C2.50106 24.0826 3.93978 28.0346 6.56376 31.1624L6.53876 31.1836C6.62626 31.2886 6.72626 31.3786 6.81626 31.4824C6.92876 31.6111 7.05001 31.7324 7.16626 31.8574C7.51459 32.2382 7.87709 32.6007 8.25376 32.9449C8.37042 33.0482 8.48709 33.1491 8.60376 33.2474C9.00376 33.5932 9.41626 33.9191 9.84126 34.2249C9.89626 34.2624 9.94626 34.3111 10.0013 34.3499V34.3349C12.9288 36.3953 16.4213 37.5011 20.0013 37.5011C23.5812 37.5011 27.0737 36.3953 30.0013 34.3349V34.3499C30.0563 34.3111 30.105 34.2624 30.1613 34.2249C30.5863 33.9182 30.9988 33.5924 31.3988 33.2474C31.5154 33.1482 31.6321 33.0474 31.7488 32.9449C32.1246 32.6007 32.4871 32.2382 32.8363 31.8574C32.9525 31.7324 33.0725 31.6111 33.1863 31.4824C33.275 31.3786 33.3763 31.2886 33.4638 31.1824L33.4363 31.1624ZM20 9.99989C21.1125 9.99989 22.2001 10.3298 23.1251 10.9479C24.0501 11.566 24.7711 12.4445 25.1968 13.4723C25.6226 14.5001 25.734 15.6311 25.5169 16.7223C25.2999 17.8134 24.7642 18.8157 23.9775 19.6024C23.1908 20.389 22.1885 20.9248 21.0974 21.1418C20.0062 21.3589 18.8752 21.2475 17.8474 20.8217C16.8196 20.396 15.9411 19.675 15.323 18.75C14.7049 17.8249 14.375 16.7374 14.375 15.6249C14.375 14.133 14.9676 12.7023 16.0225 11.6474C17.0774 10.5925 18.5082 9.99989 20 9.99989ZM10.0088 31.1624C10.0304 29.5211 10.6974 27.9543 11.8655 26.8011C13.0335 25.6478 14.6086 25.0007 16.25 24.9999H23.75C25.3914 25.0007 26.9665 25.6478 28.1346 26.8011C29.3026 27.9543 29.9696 29.5211 29.9913 31.1624C27.2498 33.6328 23.6903 35 20 35C16.3097 35 12.7502 33.6328 10.0088 31.1624Z" fill="white"/>
</g>
<defs>
<clipPath id="clip0_1077_54">
<rect width="40" height="40" fill="white"/>
</clipPath>
</defs>
</svg>
